{"glyphs":{"0":{"ha":751,"x_min":50,"x_max":742,"o":"m 554 1095 q 727 937 727 1031 q 713 922 713 937 l 727 922 q 742 937 727 937 l 742 734 q 727 677 742 703 q 742 619 742 652 l 742 605 q 713 576 742 576 l 727 547 q 396 317 646 317 q 353 302 396 302 q 50 504 50 362 l 64 533 q 50 547 64 547 q 79 648 60 648 l 64 677 q 223 965 79 810 q 396 1080 300 1042 l 454 1066 q 554 1095 511 1095 m 468 1052 q 338 965 468 1030 q 324 922 324 937 l 281 922 l 281 951 q 94 562 94 810 l 108 533 q 94 490 94 505 q 353 346 94 404 q 684 562 684 409 q 699 576 699 562 l 699 864 l 684 937 q 699 951 699 937 q 540 1052 605 1040 q 482 1037 515 1037 q 468 1052 482 1052 z "},"1":{"ha":751,"x_min":110,"x_max":614,"o":"m 571 1109 q 614 1095 599 1095 q 600 1052 614 1080 l 614 965 l 614 951 l 585 951 l 585 937 l 614 937 l 614 864 l 600 836 l 614 836 q 513 332 556 725 l 456 288 l 456 302 q 499 461 488 461 q 484 475 499 475 q 528 677 484 494 l 513 677 l 571 850 l 556 850 l 571 879 l 556 965 l 585 965 l 585 979 l 542 979 q 124 663 372 807 l 110 663 l 110 706 q 283 821 134 706 q 571 1109 498 951 z "},"2":{"ha":751,"x_min":153,"x_max":599,"o":"m 412 1225 q 556 1037 556 1179 q 369 519 556 801 l 196 245 q 282 231 282 245 l 311 245 l 412 245 q 427 231 427 245 l 455 245 l 498 245 l 599 231 l 599 201 q 542 187 567 201 l 455 201 q 441 187 441 201 l 412 201 q 354 187 380 201 q 296 201 329 201 q 239 187 264 201 q 153 201 218 201 l 153 231 q 369 605 153 274 q 513 1023 513 819 l 513 1037 q 427 1181 513 1115 l 427 1196 q 268 1037 395 1193 l 239 1037 l 239 1066 q 412 1225 295 1162 z "},"3":{"ha":751,"x_min":106,"x_max":640,"o":"m 423 1109 q 582 994 511 1109 l 582 836 q 438 692 457 692 l 423 692 l 423 663 q 640 504 640 640 l 610 490 l 625 461 l 625 418 q 380 332 574 332 l 366 332 l 337 346 q 279 302 337 310 q 106 374 170 302 l 106 389 l 121 389 q 279 346 279 357 q 538 404 538 385 q 596 490 596 432 l 582 562 q 596 576 596 562 l 582 576 l 582 562 q 524 619 524 576 l 496 605 q 452 634 452 619 l 423 619 l 366 634 l 337 619 q 279 634 312 634 l 279 648 q 351 692 279 681 q 366 677 351 677 q 553 937 553 821 q 395 1066 515 1066 q 380 1052 395 1052 q 366 1066 380 1066 q 351 1052 366 1052 l 351 1066 q 135 1008 210 1008 l 135 1023 q 423 1109 261 1109 z "},"4":{"ha":751,"x_min":140,"x_max":630,"o":"m 371 1196 q 385 1181 371 1181 q 169 663 256 836 q 256 576 169 631 l 328 591 l 500 591 q 530 562 530 586 l 500 547 l 270 547 q 140 619 140 576 l 140 648 q 342 1181 140 716 l 371 1196 m 616 850 q 630 836 616 836 q 602 634 616 634 l 616 605 q 587 547 604 547 l 602 519 l 602 317 q 587 302 602 302 l 602 274 q 572 245 602 245 l 558 346 l 558 389 q 572 404 558 404 l 558 432 q 572 446 558 446 l 558 519 l 558 562 q 572 576 558 576 q 558 591 572 591 l 587 749 l 572 778 q 616 850 591 850 z "},"5":{"ha":751,"x_min":101,"x_max":677,"o":"m 634 1225 l 634 1210 l 620 1181 l 591 1196 l 576 1196 l 576 1167 q 274 1109 274 1138 q 231 879 231 951 l 231 720 l 245 720 q 332 778 277 729 q 562 807 338 778 q 677 562 677 807 l 677 504 q 605 404 628 404 q 591 418 605 418 l 591 404 q 605 389 605 404 q 346 302 530 302 l 346 317 l 317 302 q 101 461 168 302 q 144 562 121 562 l 159 533 l 159 418 q 346 346 275 346 q 648 547 574 346 l 663 576 q 605 734 642 576 q 505 778 548 749 q 475 749 505 749 l 461 749 l 461 778 l 447 778 q 317 720 447 746 q 202 663 317 677 l 216 692 l 187 692 l 187 893 q 245 1109 187 1015 l 231 1109 q 302 1181 231 1147 q 360 1167 328 1167 q 634 1225 395 1201 z "},"6":{"ha":751,"x_min":145,"x_max":692,"o":"m 462 1311 l 477 1282 q 260 1052 477 1253 q 189 907 221 907 l 203 879 q 189 792 189 803 q 203 749 189 777 l 189 663 l 189 576 l 203 576 q 275 663 203 648 q 477 720 275 706 l 519 720 q 692 576 642 720 l 692 533 q 678 519 692 519 q 692 475 692 491 q 563 302 673 408 l 549 302 l 519 317 q 491 274 519 274 l 477 274 q 145 461 145 274 l 145 504 q 159 519 145 519 l 145 547 l 145 562 q 159 576 145 576 l 145 605 l 145 619 q 159 634 145 634 l 145 663 l 145 692 l 174 734 l 145 734 l 145 764 q 159 778 145 778 l 145 807 q 159 821 145 821 q 145 836 159 836 q 231 1066 197 1066 q 246 1052 231 1052 l 231 1080 q 462 1311 231 1097 m 203 432 l 203 404 q 419 317 203 340 q 462 332 447 332 l 491 317 q 649 519 649 409 q 635 562 635 547 l 649 562 q 477 692 616 692 q 217 490 217 663 q 203 432 203 465 z "},"7":{"ha":751,"x_min":15,"x_max":735,"o":"m 505 1124 q 591 994 573 1124 l 576 994 q 591 979 576 979 q 548 893 591 893 l 562 864 q 476 619 476 657 q 548 605 524 619 l 634 619 l 663 605 q 721 619 688 619 l 735 591 l 735 576 q 692 562 692 576 q 649 576 664 576 l 620 562 q 576 576 592 576 l 505 562 l 505 576 q 375 245 433 576 l 332 245 l 332 259 l 404 562 l 389 562 l 260 547 l 260 562 l 231 547 l 216 547 q 188 576 188 547 l 188 591 q 433 605 357 605 l 548 1008 q 505 1080 548 1025 l 260 1037 q 216 1052 232 1052 q 174 1037 189 1037 l 174 1052 q 29 1023 147 1037 l 15 1052 l 15 1066 l 58 1066 l 87 1052 l 87 1080 q 375 1095 281 1095 l 404 1080 q 505 1124 404 1124 z "},"8":{"ha":751,"x_min":91,"x_max":652,"o":"m 220 1210 q 523 1109 360 1210 l 523 1095 l 235 1167 q 149 1138 176 1138 l 149 1066 q 292 951 169 994 q 494 836 437 893 q 595 979 595 963 l 624 979 l 624 937 q 523 792 548 857 q 652 562 612 792 l 638 533 q 652 519 638 519 l 638 446 l 638 389 l 537 317 q 480 302 512 302 l 480 317 l 451 302 l 278 302 q 149 404 149 328 q 379 706 149 556 l 465 807 q 149 979 458 823 q 91 1109 91 1045 q 220 1210 96 1162 m 408 677 l 393 677 l 408 706 l 393 706 l 379 677 l 393 677 q 379 634 379 649 l 365 634 l 336 648 q 250 547 336 602 q 192 418 212 499 q 365 332 192 346 q 610 475 610 351 q 624 562 610 562 l 537 764 q 408 677 480 764 z "},"9":{"ha":751,"x_min":79,"x_max":655,"o":"m 266 1225 l 323 1225 q 496 1109 496 1185 l 482 1109 q 222 1196 363 1181 q 136 1124 222 1149 l 122 1023 q 194 836 151 920 q 180 821 180 836 q 266 764 266 806 q 280 778 280 764 q 453 749 395 749 q 612 922 568 749 l 597 951 l 612 1023 l 626 1023 q 655 994 655 1019 l 655 979 q 583 706 655 858 q 597 692 583 692 l 583 619 l 583 288 q 568 274 583 274 l 583 245 l 583 28 q 540 72 562 28 l 540 115 q 554 130 540 130 l 540 159 l 540 562 q 554 619 540 594 q 540 677 540 645 l 540 720 l 525 720 l 425 706 l 425 720 l 395 706 l 381 706 q 93 994 93 745 l 79 994 q 208 1210 79 1146 q 266 1225 233 1225 z "},"µ":{"ha":789,"x_min":41,"x_max":735,"o":"m 41 0 l 41 868 l 735 868 l 735 0 l 41 0 m 62 22 l 713 22 l 713 846 l 62 846 l 62 22 z "}," ":{"ha":373,"x_min":0,"x_max":0,"o":""},"!":{"ha":244,"x_min":24,"x_max":240,"o":"m 81 1354 l 110 1354 q 139 1325 110 1325 l 139 1282 l 110 1282 l 81 1297 l 113 1203 q 115 1179 115 1200 q 110 1023 114 1122 l 93 585 q 81 495 90 495 l 66 495 l 67 979 q 24 1225 67 1052 q 81 1354 45 1354 m 139 317 q 225 231 139 294 q 240 173 240 205 q 96 58 152 138 l 81 58 l 81 72 q 110 159 81 111 q 67 245 67 173 l 67 259 q 139 317 73 289 z "},"\"":{"ha":327,"x_min":34,"x_max":293,"o":"m 293 1267 l 293 1196 q 279 1181 293 1181 q 293 1167 279 1167 l 279 1066 l 279 1052 l 293 1023 l 279 1023 l 293 994 l 293 979 q 264 951 293 951 q 235 1066 235 1059 q 250 1253 250 1161 q 293 1267 265 1253 m 62 1095 l 77 1066 l 77 937 q 48 907 77 907 l 34 937 l 34 1066 q 62 1095 39 1095 z "},"%":{"ha":1075,"x_min":-41,"x_max":1025,"o":"m 694 965 l 709 937 q 593 720 709 890 q 536 634 593 634 l 550 605 l 276 173 l 262 173 q 248 187 262 187 q 507 619 405 474 q 694 965 507 672 m 248 937 l 276 937 q 349 749 326 937 q 176 605 349 605 l 161 634 q 146 619 146 634 q -41 720 -41 658 q 176 907 -41 858 q 248 937 176 932 m 89 764 l 60 764 l 75 792 l 75 836 l 60 836 q 3 749 60 807 l 3 734 q 218 648 3 686 q 305 677 277 677 l 305 764 q 276 893 305 800 q 118 807 224 893 q 89 764 118 764 m 910 504 q 1025 360 1025 504 q 910 144 1025 207 l 852 144 q 709 317 709 178 q 723 332 723 317 l 709 332 q 910 504 816 504 m 766 288 q 881 173 766 195 l 896 173 l 939 231 q 982 389 971 231 q 896 461 982 461 q 766 288 766 384 z "},"&":{"ha":755,"x_min":25,"x_max":745,"o":"m 515 966 l 515 952 l 544 966 q 630 909 616 966 l 630 866 q 659 793 644 866 q 270 463 659 670 l 270 448 q 357 290 270 392 q 731 520 380 290 q 745 506 731 506 q 414 275 745 452 l 399 275 l 399 261 q 558 146 517 146 l 597 121 l 544 117 q 531 116 537 116 q 385 218 437 119 q 342 232 370 218 q 212 203 275 203 q 140 232 140 203 l 111 218 q 25 304 37 255 q 39 347 39 332 l 68 333 l 54 361 l 54 376 q 198 448 165 448 l 198 520 l 212 549 l 198 549 q 184 534 198 534 l 184 578 q 198 592 184 592 l 184 621 l 184 664 q 256 751 237 751 q 270 736 256 736 l 256 765 l 256 779 q 414 909 270 779 q 515 966 454 966 m 227 606 q 241 520 241 531 q 227 506 227 520 q 241 491 241 506 q 602 793 602 694 l 602 808 q 515 924 602 924 l 486 924 q 227 606 227 707 m 83 319 l 83 304 q 169 232 169 250 q 299 261 200 246 q 212 419 299 329 l 198 419 q 83 319 115 372 m 616 102 q 686 39 651 71 l 714 54 q 743 25 743 50 l 743 11 l 728 11 q 578 91 578 44 q 616 102 616 91 z "},"'":{"ha":125,"x_min":34,"x_max":92,"o":"m 34 1196 l 62 1196 q 92 994 62 1143 l 62 994 q 34 1052 62 1017 l 34 1196 z "},"(":{"ha":338,"x_min":33,"x_max":346,"o":"m 220 1152 l 264 1152 l 264 1138 q 77 734 119 893 l 62 734 l 77 706 l 94 426 l 79 397 q 108 368 98 393 l 149 261 q 274 180 212 220 q 346 102 346 175 l 317 102 q 50 455 78 102 l 33 706 q 33 713 33 712 q 33 719 33 719 q 33 724 33 722 q 33 728 33 726 q 33 732 33 730 q 220 1152 33 814 z "},")":{"ha":330,"x_min":5,"x_max":252,"o":"m 36 1109 l 64 1109 q 237 677 137 1047 l 252 547 l 237 547 l 252 519 q 120 248 252 382 q 106 262 120 262 l 120 234 l 120 219 q 48 133 96 219 l 5 133 l 5 147 q 33 205 33 182 l 79 238 q 211 494 79 241 q 209 519 210 506 q 195 533 209 533 l 209 605 q 209 606 209 605 q 180 706 209 615 l 195 706 q 36 1080 147 854 l 36 1109 z "},"*":{"ha":892,"x_min":60,"x_max":809,"o":"m 607 886 l 621 886 l 621 857 q 549 699 585 857 q 535 641 535 699 q 722 669 708 669 l 722 655 q 521 597 722 618 l 521 583 q 708 453 708 486 q 694 439 694 453 q 549 526 549 504 q 564 540 564 526 l 535 540 l 535 526 l 607 410 q 593 395 593 410 q 477 554 535 395 l 463 554 q 420 511 463 511 q 434 468 434 483 q 334 295 357 295 l 304 295 l 420 554 l 406 554 q 74 453 201 482 l 60 482 l 60 496 l 276 554 l 319 554 q 362 583 319 583 l 362 597 q 132 669 256 669 q 175 727 153 727 l 189 727 q 420 626 252 689 l 420 655 l 334 799 l 334 813 l 348 813 q 449 669 406 813 l 477 669 q 607 886 538 838 m 736 669 l 809 669 l 809 641 l 736 641 l 736 669 z "},"+":{"ha":673,"x_min":-56,"x_max":679,"o":"m 189 951 l 218 951 q 247 922 247 946 q 233 907 247 907 q 304 648 286 648 q 362 634 362 648 q 406 648 390 648 l 434 634 q 477 648 462 648 l 477 634 l 506 648 l 578 648 l 679 634 q 650 605 679 605 l 304 605 l 362 332 l 362 259 q 420 187 420 259 l 391 173 q 261 591 323 254 l 233 591 q 16 576 160 591 l 16 591 l -12 576 l -56 576 l -56 591 q 45 634 -56 614 q 60 619 60 634 l 132 634 l 247 634 l 233 706 q 247 720 247 706 q 189 951 218 720 z "},",":{"ha":127,"x_min":-58,"x_max":129,"o":"m 85 259 l 115 259 q 129 216 115 244 q -1 -130 -1 60 l -44 -159 q -58 -115 -58 -130 q 14 201 -9 201 l -1 231 l -1 245 l 57 245 l 57 216 q 85 259 85 216 z "},"-":{"ha":412,"x_min":-85,"x_max":419,"o":"m 405 562 l 419 533 q 203 490 290 490 q 174 504 174 490 l 102 490 l -13 490 l -85 504 l -85 533 l 132 533 q 405 562 231 533 z "},".":{"ha":348,"x_min":129,"x_max":278,"o":"m 136 175 l 129 182 l 138 182 l 140 212 q 160 260 140 260 q 214 244 163 244 q 222 253 214 253 l 222 217 l 214 217 l 222 172 l 231 195 l 255 190 l 231 244 l 246 244 q 277 205 277 237 q 271 172 277 191 l 269 164 q 186 149 269 164 q 153 162 184 176 l 136 175 m 157 190 l 198 181 l 198 208 l 174 208 q 157 190 157 205 z "},"/":{"ha":645,"x_min":-22,"x_max":728,"o":"m 728 1109 l 728 1080 q 670 965 728 1040 q 267 547 519 747 q -7 317 207 465 l -22 346 q 281 605 273 605 q 295 591 281 591 l 295 605 q 281 619 281 605 q 728 1109 563 854 z "},":":{"ha":328,"x_min":24,"x_max":314,"o":"m 197 945 q 298 888 298 931 q 168 758 298 803 l 141 766 l 69 766 q 24 772 69 772 l 24 816 q 197 945 73 816 m 125 802 l 125 787 q 168 802 153 802 l 168 830 l 154 830 q 125 802 125 826 m 228 507 q 314 435 287 487 l 314 391 q 184 319 278 319 l 170 348 q 271 391 227 363 q 228 449 250 449 l 156 449 l 170 348 l 141 334 l 98 334 l 83 406 l 83 492 l 98 492 l 127 478 q 228 507 200 507 z "},";":{"ha":247,"x_min":9,"x_max":210,"o":"m 9 1080 l 110 1080 q 210 951 210 1034 l 210 937 q 182 907 210 907 l 153 907 l 153 937 q 168 951 153 951 q 9 1052 168 1019 l 9 1080 m 138 288 l 182 288 l 182 274 q 110 -28 165 -28 l 124 -58 l 124 -101 q 95 -130 124 -130 q 52 -86 75 -130 q 66 -72 66 -86 q 23 173 23 -72 l 52 187 q 81 159 81 183 l 81 86 q 66 72 81 72 q 81 -28 81 54 l 95 -28 q 138 288 124 98 z "},"<":{"ha":616,"x_min":18,"x_max":579,"o":"m 413 785 l 442 785 l 442 770 q 76 528 389 745 l 61 490 q 536 432 524 444 l 550 418 q 579 389 579 414 l 550 375 l 406 389 q 392 404 392 391 q 378 389 378 404 q 18 461 112 424 l 18 519 q 413 785 203 717 z "},"=":{"ha":604,"x_min":-22,"x_max":583,"o":"m -7 692 q 64 663 64 677 q 165 692 138 692 q 252 663 252 681 q 468 692 283 677 l 482 663 l 511 677 l 555 677 l 555 648 l 482 634 q 439 648 454 648 l 410 634 l 324 648 l 295 634 q 237 648 270 648 l 180 634 q 122 648 155 648 l 122 634 l 94 648 l 36 634 q -22 648 11 648 l -22 663 l -7 692 m 22 504 l 36 504 q 50 490 50 504 l 79 504 l 94 504 q 108 490 108 504 l 137 504 l 223 504 q 237 490 237 504 l 267 504 l 281 504 q 295 490 295 504 l 324 504 l 425 504 l 454 490 q 468 504 454 504 l 468 490 q 511 504 496 504 l 583 490 l 583 461 l 526 461 q 511 475 511 461 l 482 461 l 195 461 q 180 446 180 461 l 151 461 q 137 446 137 461 l 108 461 l 22 461 l 22 504 z "},">":{"ha":578,"x_min":45,"x_max":523,"o":"m 74 719 l 175 719 q 189 705 189 719 q 204 719 204 705 q 440 644 286 719 q 522 548 454 634 q 523 538 523 543 q 288 365 520 465 l 238 327 q 152 298 191 298 l 94 298 l 94 327 q 464 547 431 438 q 45 690 220 690 l 45 705 l 74 719 z "},"?":{"ha":468,"x_min":-82,"x_max":523,"o":"m 292 1282 q 494 1124 494 1219 l 509 1124 l 494 1095 q 523 1080 523 1095 q 235 749 523 839 q 177 663 177 720 l 192 591 l 177 591 q 134 648 155 591 q 307 821 134 772 q 479 1066 479 899 q 336 1239 463 1166 l 292 1239 q 4 1066 4 1141 q -68 1008 -16 1066 l -82 1008 q 134 1225 -82 1098 q 149 1210 134 1210 q 292 1282 149 1267 m 235 259 l 235 245 l 264 259 l 278 187 q 250 159 250 183 l 177 201 l 177 187 l 235 115 q 206 86 235 86 l 192 86 l 163 101 q 149 86 163 86 q 134 101 149 101 q 149 115 134 115 l 134 187 q 235 259 134 259 z "},"@":{"ha":1013,"x_min":54,"x_max":918,"o":"m 544 951 q 861 734 861 873 l 890 734 l 890 663 q 918 634 895 634 l 904 562 q 918 519 918 534 q 904 504 904 519 l 918 504 l 890 346 l 918 346 q 631 -14 918 -14 l 631 0 q 616 -14 616 0 q 256 130 379 -14 q 54 475 54 290 l 68 504 q 54 519 68 519 q 83 648 68 648 l 68 677 q 544 951 68 861 m 98 576 l 98 533 l 83 533 l 83 519 l 112 519 q 98 461 112 486 q 400 72 98 268 q 631 28 608 28 q 876 332 876 28 l 861 360 l 861 389 q 876 404 861 404 l 861 432 l 861 533 q 876 547 861 547 q 558 907 876 825 q 112 663 112 823 q 98 576 112 598 m 544 764 q 717 591 717 737 l 731 519 q 717 475 717 491 q 731 461 717 461 q 602 173 715 290 q 472 144 571 159 q 285 231 285 159 q 458 404 299 404 q 472 389 472 404 l 500 404 l 631 404 q 357 332 631 374 q 328 231 328 239 q 486 187 384 187 q 688 461 688 245 l 673 519 q 688 533 673 533 q 558 706 688 706 l 486 706 q 313 663 450 706 l 299 663 l 299 706 l 544 764 z "},"A":{"ha":814,"x_min":45,"x_max":823,"o":"m 334 1152 q 507 720 435 1152 q 492 706 492 720 l 507 706 q 521 720 507 720 q 578 605 521 703 l 650 619 l 680 619 l 680 591 l 593 562 l 823 101 l 795 86 q 593 461 718 188 l 622 461 l 622 475 q 549 533 578 475 q 334 490 347 490 l 247 490 q 233 504 233 490 l 204 490 l 132 490 q 103 404 132 404 q 117 389 103 389 q 89 288 108 288 l 103 259 l 103 159 l 89 159 q 45 302 60 159 q 204 764 83 528 l 189 792 q 304 1138 279 1138 l 334 1152 m 319 1095 q 233 792 319 1060 l 247 792 q 146 533 189 591 l 319 533 q 521 591 521 562 q 406 979 463 728 q 420 994 420 979 l 406 994 q 391 979 406 979 q 334 1095 391 1058 l 319 1095 z "},"B":{"ha":777,"x_min":63,"x_max":726,"o":"m 222 1181 q 538 893 351 1181 q 596 807 562 893 q 640 749 632 807 l 625 720 l 640 692 q 495 547 602 547 l 481 547 l 481 533 q 726 231 684 385 q 437 58 726 75 q 207 159 207 58 l 222 159 l 207 187 l 222 259 l 236 259 q 351 101 236 101 l 380 115 q 437 101 405 101 q 452 115 437 115 l 452 101 q 668 231 668 101 q 337 519 554 519 l 308 504 q 250 519 283 519 l 250 562 l 322 562 q 596 706 596 562 q 495 879 581 817 q 294 1109 458 959 q 308 1124 308 1109 l 294 1124 l 294 1109 q 250 1124 266 1124 l 250 1138 l 279 1138 l 279 1152 l 264 1152 l 236 1138 q 193 1152 208 1152 q 149 979 168 1091 l 164 951 l 164 591 q 222 346 222 432 q 207 332 222 332 l 222 302 l 222 274 q 178 231 222 253 q 121 389 142 231 l 121 634 q 63 965 121 725 l 63 979 q 77 994 63 994 q 63 1037 63 1022 l 63 1052 l 77 1052 q 106 922 106 958 l 121 922 q 193 1181 121 1181 l 222 1181 z "},"C":{"ha":600,"x_min":71,"x_max":590,"o":"m 489 1181 l 503 1152 q 417 1124 456 1124 l 388 1138 q 330 1124 363 1124 q 316 1138 330 1138 q 157 907 157 1031 q 115 821 148 907 q 129 807 115 807 q 100 706 119 706 l 115 677 l 115 591 q 258 245 115 245 q 446 231 376 245 q 561 274 527 250 l 590 274 l 590 259 q 460 187 550 187 l 374 201 q 359 187 359 201 q 85 389 85 187 l 71 475 l 71 634 q 230 1138 71 980 q 302 1167 266 1138 l 388 1167 l 489 1181 z "},"D":{"ha":743,"x_min":93,"x_max":684,"o":"m 136 1138 l 165 1138 q 179 1109 165 1109 q 136 994 165 994 l 151 965 l 151 749 q 136 734 151 734 l 151 706 l 151 619 q 136 605 151 605 l 151 576 l 151 547 q 121 245 151 321 q 179 216 179 241 q 554 519 419 355 q 654 734 597 519 q 626 879 640 761 q 640 893 640 879 l 626 893 q 612 879 626 879 q 338 1080 494 1080 q 309 1109 338 1109 q 252 1080 252 1098 q 208 1095 224 1095 l 208 1109 q 237 1138 213 1138 l 280 1138 q 583 1008 407 1138 q 684 807 684 903 l 684 764 q 453 360 684 511 q 194 187 264 187 l 165 187 q 93 259 146 187 q 107 591 107 485 l 121 591 l 107 619 q 121 634 107 634 l 107 663 q 136 1138 107 966 m 194 1080 l 237 1080 q 208 1052 237 1052 l 194 1052 l 194 1080 z "},"E":{"ha":804,"x_min":84,"x_max":833,"o":"m 257 1210 l 286 1210 q 559 1152 331 1187 q 574 1167 574 1152 q 718 1109 718 1167 q 732 1124 732 1109 q 833 1080 833 1109 l 804 1066 q 631 1124 718 1080 q 617 1109 617 1124 q 257 1167 587 1109 l 257 1210 m 170 1181 l 214 1181 q 170 792 170 880 l 170 619 q 430 677 223 648 q 473 648 430 648 l 473 634 q 170 576 303 619 q 113 201 170 440 q 329 101 113 101 l 358 115 l 387 101 q 747 216 747 122 l 761 216 l 761 159 q 430 58 761 94 l 430 72 l 401 58 q 358 72 386 58 l 271 58 l 271 72 l 243 58 q 84 187 84 58 l 127 547 l 127 792 l 170 1181 z "},"F":{"ha":642,"x_min":72,"x_max":764,"o":"m 144 1109 l 216 1095 l 446 1095 q 461 1080 461 1095 l 490 1095 l 720 1095 q 764 1052 741 1095 l 619 1052 q 605 1066 605 1052 l 576 1052 l 360 1052 q 302 1066 328 1052 q 245 1052 277 1052 l 201 1052 l 173 1066 q 144 807 158 817 l 158 778 q 144 734 144 750 l 158 706 l 158 663 q 518 576 518 634 l 490 562 q 144 619 357 605 l 144 130 l 130 130 q 100 159 100 130 l 100 231 q 115 245 100 245 l 100 274 l 100 302 q 115 346 100 346 l 100 418 l 100 576 q 72 663 100 615 q 115 734 104 663 q 100 749 115 749 q 144 1109 119 977 z "},"G":{"ha":848,"x_min":8,"x_max":786,"o":"m 484 1138 q 714 1066 714 1109 l 700 1066 q 454 1080 503 1080 q 253 994 425 1080 l 224 994 l 224 1008 q 484 1138 224 1053 m 224 994 l 239 965 q 52 562 52 698 q 426 159 52 311 l 541 159 q 743 302 670 159 l 758 302 q 627 490 758 490 q 570 519 570 490 l 585 519 l 613 504 l 613 533 l 656 533 q 786 374 786 533 q 728 216 786 292 q 541 115 666 115 l 484 115 q 426 130 451 115 l 397 115 q 8 576 8 285 l 8 619 q 66 749 8 659 q 224 994 91 857 z "},"H":{"ha":780,"x_min":37,"x_max":671,"o":"m 224 1080 l 239 1080 l 239 1037 q 153 864 161 946 l 138 720 l 123 691 l 598 691 l 613 965 q 642 994 618 994 l 656 965 l 656 951 l 642 879 q 656 864 656 879 q 642 850 642 864 q 656 836 656 850 l 642 836 q 671 706 656 706 l 656 605 l 642 243 q 627 229 641 229 l 642 200 l 642 128 l 598 128 l 613 432 q 628 446 614 446 l 613 475 l 598 619 q 570 648 595 648 l 123 648 q 95 446 110 648 l 80 243 q 51 214 78 214 l 37 214 l 52 504 q 109 821 57 614 l 109 893 l 138 879 l 123 907 q 224 1080 123 990 z "},"I":{"ha":282,"x_min":45,"x_max":174,"o":"m 45 965 l 88 965 l 102 893 l 88 893 l 102 864 l 102 821 l 88 792 q 117 764 117 788 l 117 749 q 102 734 117 734 q 174 332 174 600 l 174 130 l 131 130 l 131 317 q 59 821 131 508 l 73 821 q 45 965 59 847 z "},"J":{"ha":504,"x_min":-10,"x_max":393,"o":"m 350 1008 q 393 937 371 1008 l 379 836 l 379 634 q 393 576 379 602 q 379 519 379 551 l 379 360 q 206 101 379 155 q -10 288 53 101 q 4 346 4 313 l 33 346 q 206 144 47 144 l 220 144 q 350 446 350 249 q 336 605 336 545 l 336 677 q 350 836 336 737 q 336 893 336 861 l 350 893 l 336 922 q 350 937 336 937 l 336 965 q 350 1008 350 993 z "},"K":{"ha":718,"x_min":100,"x_max":647,"o":"m 114 1138 l 128 1138 q 157 1109 157 1133 l 157 979 q 143 922 157 947 q 157 864 157 897 l 157 807 q 143 792 157 792 l 157 764 l 157 749 q 143 734 157 734 l 157 706 l 157 619 l 172 619 q 582 1056 402 819 q 229 605 595 951 l 229 591 q 647 187 229 570 l 647 159 q 215 547 578 159 l 157 547 q 143 490 157 490 l 157 461 l 157 404 q 114 317 157 329 l 114 432 q 100 547 114 492 q 114 663 114 603 l 114 720 q 128 734 114 734 l 114 764 l 114 1138 m 157 317 l 157 115 l 143 115 q 114 144 114 115 l 114 274 q 157 317 114 294 z "},"L":{"ha":624,"x_min":103,"x_max":665,"o":"m 103 1080 l 146 1080 l 146 922 l 117 922 l 117 907 l 146 907 l 146 288 q 334 159 146 178 q 348 173 348 159 l 420 159 l 622 159 l 650 173 q 665 130 650 157 l 636 115 l 406 115 l 406 144 l 391 144 l 391 115 l 362 115 q 348 130 348 115 l 319 115 q 304 130 304 115 l 276 115 l 262 115 q 103 274 143 115 l 103 648 q 117 663 103 663 l 103 692 l 103 994 q 117 1008 103 1008 l 103 1037 l 103 1080 z "},"M":{"ha":863,"x_min":58,"x_max":749,"o":"m 231 1080 q 389 749 317 985 q 475 677 389 677 q 576 864 475 706 q 634 979 591 979 q 648 965 634 965 l 648 979 l 634 979 q 692 1066 663 1066 l 706 1066 q 749 965 730 1066 q 734 922 734 937 q 749 879 734 907 q 734 749 734 801 l 749 692 l 734 692 l 749 663 l 734 576 l 749 547 q 734 533 749 533 q 749 490 734 517 l 734 360 q 749 317 749 332 l 734 317 l 749 288 q 720 259 749 259 l 692 332 l 706 360 l 692 389 l 706 418 l 692 490 l 706 591 l 692 677 l 706 677 l 692 706 q 706 720 692 720 l 692 749 l 692 778 q 706 792 692 792 l 692 821 q 706 836 692 836 l 692 864 l 692 879 q 706 937 692 911 q 692 994 692 962 l 663 994 q 490 619 623 833 l 475 619 q 302 864 364 619 q 245 1008 285 864 l 231 1008 q 130 475 231 802 q 101 187 101 307 l 58 187 q 187 965 58 281 q 231 1080 187 1072 z "},"N":{"ha":793,"x_min":85,"x_max":690,"o":"m 171 1008 l 186 1008 q 401 619 272 912 q 517 475 418 618 l 517 461 l 488 461 q 416 562 457 461 q 214 907 300 690 l 186 922 l 186 821 q 128 605 128 615 l 142 533 l 128 533 q 142 490 142 505 l 128 404 q 142 302 142 346 q 128 259 142 288 l 142 231 l 128 159 l 99 159 q 85 187 99 187 l 99 259 l 99 317 l 85 418 l 99 418 l 85 446 q 99 461 85 461 l 85 490 l 99 519 q 85 576 85 544 l 99 576 q 85 591 99 591 q 157 792 109 792 l 142 821 l 142 836 q 157 850 142 850 l 142 879 l 142 937 l 171 922 l 171 937 q 142 965 142 937 l 142 979 q 171 1008 147 1008 m 661 979 l 690 979 l 690 937 q 675 922 690 922 l 690 893 l 690 879 q 661 850 690 850 l 675 821 q 661 720 675 739 q 675 591 675 642 l 675 533 q 661 475 675 500 q 675 418 675 450 l 675 404 l 661 259 l 618 259 q 517 418 587 259 l 531 418 l 517 446 l 517 461 l 546 461 q 589 374 546 422 l 574 346 l 589 346 q 604 360 589 360 q 632 332 608 332 q 618 346 632 346 l 632 418 l 632 432 q 618 490 632 465 l 632 519 q 618 562 632 534 q 632 692 632 640 l 632 720 q 618 778 632 753 l 661 979 z "},"O":{"ha":886,"x_min":43,"x_max":792,"o":"m 432 1008 q 590 951 515 1008 q 792 663 715 951 q 777 619 792 648 q 792 605 777 605 l 777 533 l 777 519 q 792 504 777 504 q 576 101 792 269 q 489 58 546 101 q 57 332 223 58 q 43 374 57 347 q 57 389 43 389 l 43 461 l 43 475 q 57 490 43 490 l 43 519 l 43 533 q 57 547 43 547 q 43 562 57 562 q 259 979 43 732 q 432 1008 304 979 m 86 504 l 100 475 l 86 389 q 273 159 86 297 l 273 144 l 302 159 q 417 101 302 124 l 446 115 l 489 86 l 489 101 q 475 115 475 101 q 749 677 749 153 q 590 893 690 893 l 562 922 l 532 907 q 432 965 513 907 q 158 764 234 965 q 86 504 115 764 z "},"P":{"ha":559,"x_min":98,"x_max":530,"o":"m 214 1124 l 343 1124 l 387 1095 l 387 1109 q 516 965 516 1050 l 502 965 q 530 807 516 935 q 357 648 484 648 q 271 663 336 663 q 444 720 271 702 q 488 821 473 764 q 315 1080 488 1080 q 214 1109 214 1080 l 214 1124 m 184 1095 l 214 1095 q 142 807 142 867 l 156 749 q 142 706 142 721 l 156 677 q 142 619 142 652 q 156 576 142 604 q 142 533 142 549 q 156 490 156 505 l 142 490 l 156 461 l 142 432 q 156 374 156 407 l 142 346 q 156 302 156 318 l 142 274 q 156 216 156 248 q 142 159 156 209 l 113 159 l 98 231 q 113 274 98 245 q 98 317 98 302 l 113 346 q 98 389 98 374 q 113 404 98 404 l 98 475 l 98 547 q 113 562 98 562 l 98 591 l 98 619 q 113 634 98 634 l 98 663 q 113 677 98 677 q 98 720 98 705 q 113 864 98 739 l 98 864 q 184 1095 161 1095 m 214 692 l 271 692 l 271 677 l 214 663 l 214 692 z "},"Q":{"ha":997,"x_min":61,"x_max":968,"o":"m 565 1109 l 594 1109 l 594 1080 q 133 778 133 927 q 104 706 133 706 q 119 692 104 692 l 104 619 l 104 461 q 234 201 104 231 q 522 72 407 72 q 753 201 753 136 q 680 288 680 229 l 652 274 q 594 332 629 274 l 594 360 l 608 360 q 767 231 728 274 q 839 461 839 231 l 839 547 q 853 562 839 562 q 825 692 839 587 q 839 706 839 692 q 695 907 789 724 q 536 979 536 932 l 507 979 l 450 937 l 435 937 l 435 979 q 493 1023 435 1001 q 795 836 740 954 l 795 821 l 781 792 q 882 519 882 792 q 868 504 882 504 l 882 475 l 882 432 q 825 173 882 316 q 968 28 839 173 l 968 0 q 781 159 943 0 q 493 43 709 43 l 435 43 q 133 216 380 43 q 61 432 61 283 l 61 446 q 75 461 61 461 l 61 490 l 61 591 q 277 994 61 909 q 565 1109 385 1052 z "},"R":{"ha":691,"x_min":82,"x_max":629,"o":"m 168 1095 l 327 1095 q 615 879 556 1095 q 629 807 629 855 q 327 619 589 619 l 327 605 l 298 619 l 283 619 l 298 591 q 255 576 255 591 q 500 360 271 524 q 629 201 629 235 l 601 201 q 226 547 226 532 l 183 547 l 183 605 q 514 706 370 677 q 543 734 519 734 l 572 720 l 572 734 l 557 734 q 586 821 586 782 q 370 1052 522 1052 l 370 1066 l 341 1052 l 269 1052 q 255 1066 255 1052 q 140 994 153 1048 l 140 864 q 125 850 140 850 l 140 821 l 140 720 l 111 720 l 111 706 l 140 706 l 140 562 q 183 159 140 436 l 140 159 l 96 418 l 125 418 l 125 432 l 96 432 l 96 619 q 111 634 96 634 q 82 778 96 778 q 168 1095 96 1095 z "},"S":{"ha":653,"x_min":66,"x_max":600,"o":"m 355 1095 l 427 1095 l 427 1080 q 196 1008 427 1061 q 110 864 110 947 q 124 821 124 836 q 110 807 110 821 q 225 692 135 807 l 456 562 q 585 374 541 462 q 556 346 585 346 l 542 346 q 283 605 542 480 l 268 605 l 283 634 l 268 634 l 268 619 q 225 634 240 634 l 239 663 l 225 663 l 225 648 q 168 706 182 659 q 182 720 182 706 l 153 706 l 138 706 q 81 778 119 778 l 81 836 q 66 893 81 868 q 355 1095 66 1029 m 585 346 q 600 274 585 298 q 383 72 600 72 l 383 86 q 513 144 383 109 q 556 288 556 204 q 542 332 542 316 q 585 346 557 332 m 95 288 q 369 101 196 101 l 369 72 l 311 72 q 297 86 297 72 l 268 72 q 66 259 162 72 l 66 274 l 95 288 z "},"T":{"ha":450,"x_min":-98,"x_max":521,"o":"m -70 1152 l 118 1152 q 132 1138 132 1152 l 161 1152 l 319 1152 q 521 1080 521 1124 l 521 1052 q 305 1109 363 1109 l 233 1109 q 276 850 276 987 q 248 663 269 663 l 262 634 l 262 461 q 248 404 262 429 l 262 374 q 248 302 248 351 l 218 302 l 218 475 q 204 591 218 535 q 233 879 233 770 q 176 1109 209 1109 l -70 1109 q -98 1138 -98 1109 l -70 1152 z "},"U":{"ha":807,"x_min":87,"x_max":707,"o":"m 102 1080 l 131 1080 l 131 836 q 145 778 131 803 q 131 720 131 753 l 131 591 q 318 231 131 260 q 462 187 368 201 q 664 461 664 187 l 649 490 l 649 734 l 678 734 l 678 749 q 649 764 649 749 l 664 893 l 692 893 l 692 706 q 707 663 692 663 l 692 591 l 692 374 q 519 159 668 159 l 376 159 q 87 533 87 218 l 102 533 l 87 562 l 87 720 q 102 1080 87 842 z "},"V":{"ha":550,"x_min":31,"x_max":535,"o":"m 521 1095 l 535 1066 q 477 907 510 907 q 492 864 492 880 q 377 461 435 753 l 363 461 l 377 432 l 305 231 l 319 201 l 290 159 q 305 115 305 131 l 262 115 q 117 677 233 334 q 75 879 75 838 l 89 879 q 132 807 121 879 q 117 792 117 807 q 175 605 175 792 q 262 404 223 404 l 262 389 l 248 360 q 276 317 276 360 l 290 317 q 420 792 382 715 q 449 821 425 821 l 435 850 q 521 1095 498 1095 m 31 1052 l 45 1052 q 89 893 89 1052 l 60 879 q 31 1008 31 972 l 31 1052 z "},"W":{"ha":800,"x_min":26,"x_max":746,"o":"m 26 1109 q 127 792 83 1109 q 213 504 155 641 l 227 432 l 256 432 l 357 864 q 415 879 382 879 q 530 461 468 879 q 616 389 575 389 l 616 404 q 631 446 616 418 l 616 446 l 631 475 l 631 562 q 660 663 635 663 l 645 692 l 645 720 l 660 749 l 645 749 q 718 1023 718 913 l 718 1037 l 746 1037 l 746 879 q 660 562 720 840 l 674 533 q 660 475 674 500 l 674 446 q 602 346 645 357 l 573 346 q 472 576 521 346 l 501 562 l 501 576 q 458 605 458 591 q 386 836 458 764 q 357 807 386 807 q 372 764 372 779 q 256 332 342 572 l 227 332 q 112 692 203 334 l 127 720 q 54 979 83 720 q 26 1080 31 979 l 26 1109 z "},"X":{"ha":696,"x_min":29,"x_max":692,"o":"m 115 1080 l 130 1080 q 245 821 164 1080 q 332 706 273 821 q 461 836 349 706 q 475 821 461 821 l 475 836 q 461 850 461 836 q 677 1023 489 850 l 692 1023 l 692 979 q 418 734 677 979 q 404 749 418 749 l 418 720 l 346 634 l 346 619 q 519 360 404 619 q 620 201 620 282 l 606 201 q 389 533 409 408 q 404 547 404 533 l 389 547 q 375 533 389 533 q 303 619 324 619 q 159 404 260 597 q 73 201 73 278 l 29 201 l 29 245 q 159 490 121 444 q 288 677 159 517 l 288 706 q 115 1080 115 947 z "},"Y":{"ha":545,"x_min":20,"x_max":596,"o":"m 48 1109 q 77 1080 77 1105 q 63 1066 77 1066 q 221 749 63 1038 q 207 734 207 749 q 279 692 258 734 q 509 1023 509 832 l 581 1109 l 596 1109 q 322 663 509 761 q 294 648 294 663 l 264 663 l 250 663 l 250 648 q 221 389 250 389 l 236 360 l 236 302 q 221 288 236 288 l 236 259 q 221 245 236 245 q 279 115 250 157 l 264 115 q 207 159 207 137 q 221 173 221 159 l 193 173 l 193 346 q 221 663 198 663 q 20 1095 20 1001 l 48 1109 z "},"Z":{"ha":892,"x_min":-55,"x_max":896,"o":"m 852 1196 l 867 1196 l 867 1152 q 449 619 449 669 l 420 634 l 435 605 q 176 159 362 515 q 277 187 277 168 q 291 173 291 187 l 391 187 l 852 187 l 882 173 q 896 187 882 187 l 896 173 q 867 144 896 144 l 737 144 q 723 159 723 144 l 694 144 l 334 144 l 262 130 q 248 144 262 144 q 219 115 248 115 q 204 130 204 115 l 176 115 q 118 173 153 115 q 262 404 192 252 q 564 850 373 644 q 766 1109 608 923 l 766 1124 l 752 1124 l 665 1080 q 651 1095 651 1080 l 550 1080 l 478 1080 l 492 1109 l 478 1109 q 449 1080 478 1080 l 449 1095 l 420 1080 q 406 1095 406 1080 l 377 1080 l 349 1080 q 334 1095 334 1080 l 305 1080 l 190 1080 q 176 1095 176 1080 l 146 1080 l 75 1080 q 60 1095 60 1080 l 31 1080 l -55 1080 l -55 1124 l 435 1124 q 564 1138 487 1124 q 622 1124 590 1124 q 852 1196 646 1124 z "},"[":{"ha":656,"x_min":41,"x_max":609,"o":"m 510 1350 l 553 1350 l 553 1335 q 250 1220 517 1291 q 193 1235 225 1235 q 84 864 84 1120 l 84 389 q 69 374 84 374 l 84 346 l 69 317 q 149 85 109 201 q 336 27 181 60 q 609 128 460 115 l 609 85 q 350 -1 565 85 l 321 -1 q 62 157 94 -1 q 41 404 41 259 l 41 749 q 193 1263 41 1220 l 409 1307 q 423 1293 409 1293 q 510 1350 423 1350 z "},"\\":{"ha":628,"x_min":41,"x_max":574,"o":"m 41 1109 l 84 1109 q 271 677 84 1028 l 271 663 l 242 648 q 41 1109 41 1010 m 286 663 q 343 591 343 599 q 329 576 329 591 l 343 576 q 357 591 343 591 q 574 346 448 471 l 574 317 q 257 634 511 317 q 286 663 261 663 z "},"]":{"ha":599,"x_min":28,"x_max":545,"o":"m 43 1264 l 187 1264 q 538 1040 471 1264 q 545 619 545 976 q 516 475 545 583 l 545 475 l 545 404 q 290 75 545 75 q 275 60 290 60 q 261 75 261 60 l 189 60 l 132 60 l 132 90 q 502 404 502 90 l 502 734 l 495 983 l 510 983 l 460 1063 l 475 1063 q 115 1221 401 1221 l 28 1221 q 43 1264 43 1249 z "},"^":{"ha":6329,"x_min":41,"x_max":6275,"o":"m 4745 1475 l 4774 1475 l 4774 1447 q 4102 1103 4443 1335 q 4073 1132 4073 1103 q 4388 1347 4289 1253 q 4745 1475 4721 1475 m 6217 1475 l 6232 1475 l 6232 1461 q 6003 1347 6232 1393 q 5975 1375 6003 1375 l 5975 1361 q 5989 1347 5989 1361 q 5775 1275 5781 1275 l 5775 1289 q 5703 1261 5728 1261 l 5703 1275 q 5503 1232 5672 1251 q 5488 1246 5503 1246 q 5474 1232 5488 1232 q 5460 1246 5474 1246 l 5460 1232 l 5431 1246 l 5288 1232 l 5288 1246 l 5260 1232 l 5216 1232 l 5117 1246 l 5117 1232 l 5088 1246 l 5002 1232 l 5002 1246 l 4974 1232 l 4945 1232 q 4931 1246 4931 1232 l 4902 1232 l 4816 1246 q 4802 1232 4816 1232 l 4788 1261 l 4788 1289 l 4831 1289 q 4845 1275 4845 1289 l 4873 1289 l 4902 1275 l 4988 1289 l 5016 1289 q 5031 1275 5031 1289 l 5060 1289 l 5145 1289 q 5160 1275 5160 1289 l 5188 1289 l 5246 1289 q 5260 1275 5260 1289 l 5288 1289 q 5303 1275 5303 1289 l 5331 1289 l 5417 1275 l 5446 1289 l 5503 1261 q 5531 1289 5507 1289 l 5560 1275 q 5617 1289 5585 1289 q 5632 1275 5617 1275 l 5632 1303 l 5688 1303 l 5789 1333 q 5803 1318 5789 1318 l 5803 1333 l 5832 1318 l 5846 1318 l 5832 1347 q 6217 1475 6151 1420 m 627 1175 l 642 1175 l 627 1146 l 642 1146 q 670 1175 646 1175 l 856 1175 q 870 1161 870 1175 l 899 1175 l 941 1175 q 956 1161 956 1175 l 985 1175 l 999 1175 q 1013 1161 1013 1175 q 1056 1175 1041 1175 q 1470 1161 1156 1175 l 1470 1146 q 1485 1161 1485 1146 q 1671 1103 1671 1143 q 1657 1089 1657 1103 q 1499 1118 1529 1107 l 1470 1103 q 1428 1132 1428 1118 l 1399 1118 l 1328 1118 q 1313 1132 1313 1118 l 1284 1118 q 1270 1132 1270 1118 l 1242 1118 l 1113 1132 l 1084 1118 q 956 1146 956 1132 l 927 1132 l 899 1132 q 884 1146 884 1132 l 856 1132 l 713 1132 q 313 1032 549 1132 q 298 1046 313 1046 q 127 932 298 1018 q 83 818 83 871 q 1070 546 83 707 q 1227 803 1160 650 q 1485 1075 1420 1075 l 1499 1046 q 1456 960 1456 991 l 1428 975 l 1413 946 l 1428 946 q 1342 832 1409 885 q 1213 631 1342 808 l 1199 546 q 1213 532 1213 546 q 1199 517 1199 532 q 1342 489 1305 517 l 1342 503 q 1428 460 1428 493 l 1456 475 q 1685 417 1685 427 l 1685 403 q 1928 475 1729 403 q 2014 417 2014 446 q 1942 274 2014 367 q 2014 60 2014 165 q 1971 -55 1971 -37 l 1985 -55 l 2157 -69 l 2157 -55 l 2186 -69 l 2200 -69 l 2228 -55 l 2228 -69 l 2257 -55 q 2300 -69 2272 -55 q 2557 -12 2545 -12 q 2572 -26 2557 -26 q 2600 3 2576 3 l 2629 -12 q 2657 17 2633 17 l 2672 17 q 2686 3 2686 17 q 2858 60 2751 45 q 2872 74 2858 74 q 2886 60 2886 74 q 3000 88 2939 88 q 3015 74 3000 74 q 3373 174 3015 124 q 3401 189 3373 189 q 3429 160 3405 160 q 3672 231 3429 209 q 3687 245 3672 245 l 3687 231 q 3844 260 3743 260 l 3873 260 q 3887 245 3887 260 q 4974 489 4548 374 q 4888 417 4965 417 l 4859 417 l 4831 431 q 4802 389 4831 389 q 4788 403 4788 389 q 4602 346 4706 364 l 4602 360 q 4416 302 4532 346 l 4416 317 q 4144 260 4384 288 q 4130 245 4144 245 l 4087 245 l 4059 260 q 3973 217 4045 217 q 3458 131 3630 217 l 3429 146 l 3401 131 l 3358 131 q 3343 117 3358 117 q 3201 102 3219 102 q 3158 117 3173 117 l 3172 88 q 2814 3 2825 3 q 2800 17 2814 17 l 2800 -12 q 2614 -55 2684 -12 q 2586 -26 2614 -26 l 2586 -41 q 2600 -55 2600 -41 l 2357 -98 l 2357 -83 q 2271 -112 2310 -112 q 2257 -98 2257 -112 l 2228 -112 l 2214 -112 q 2200 -98 2200 -112 l 2171 -112 l 2100 -112 l 2057 -83 q 2028 -112 2057 -112 l 2028 -98 q 2014 -112 2014 -98 l 1942 -98 l 1642 -255 l 1628 -255 l 1628 -241 q 1528 -269 1571 -269 q 1514 -255 1528 -255 q 1313 -326 1514 -292 q 1113 -541 1259 -326 l 1013 -570 q 999 -555 1013 -555 q 1042 -340 1017 -340 q 941 -212 1042 -314 q 899 -12 899 -90 l 899 174 l 927 160 l 927 174 q 899 203 899 174 l 899 217 l 1027 517 q 727 574 727 540 l 656 560 q 498 603 624 589 q 313 689 313 651 l 283 675 l 255 675 q 241 689 241 675 l 212 675 q 155 718 155 696 l 127 703 q 41 803 100 703 l 41 832 q 627 1175 41 1047 m 5660 1075 l 5803 1075 q 5674 1018 5803 1046 l 5674 1032 q 5589 1004 5627 1004 l 5589 1018 q 4917 861 5090 861 q 4902 875 4917 875 l 4902 846 l 4888 846 l 4859 861 q 4530 774 4859 832 q 4516 789 4530 789 q 4287 746 4516 756 q 4273 760 4287 760 q 4245 732 4273 732 q 4230 746 4230 732 q 4087 718 4108 718 q 4073 732 4087 732 q 4045 703 4073 703 l 3958 703 l 3858 689 l 3858 703 l 3830 689 l 3701 689 q 3687 703 3687 689 l 3658 689 q 3644 703 3644 689 l 3615 689 l 3401 689 q 3387 703 3387 689 l 3358 689 l 3286 689 q 3272 703 3272 689 q 3086 675 3240 692 l 3086 689 q 2600 603 2816 603 l 2600 661 q 2657 803 2635 661 q 2629 832 2657 832 q 1900 703 2195 746 q 1871 689 1900 689 l 1857 718 l 1857 732 l 1928 746 l 1957 732 l 1957 746 q 1942 760 1942 746 l 1971 760 q 1985 746 1985 760 q 2328 818 2058 771 q 2572 875 2401 841 q 2586 861 2586 875 q 2600 875 2600 861 q 2700 832 2700 861 l 2686 803 l 2700 774 q 2643 661 2684 661 l 2643 646 l 2672 646 q 3244 732 3095 732 l 3286 732 q 3343 746 3319 732 q 3530 718 3530 728 l 3601 732 q 4245 789 4002 732 l 4245 774 q 4717 861 4451 803 q 4731 846 4717 846 l 4745 875 q 4759 861 4759 875 l 4831 875 l 4888 875 l 4888 903 l 4974 903 l 5002 918 l 5002 903 q 5160 946 5124 946 q 5174 932 5160 932 l 5174 960 l 5260 960 q 5389 1004 5323 1004 q 5403 989 5389 989 q 5646 1061 5403 1031 q 5660 1075 5646 1075 m 6032 703 l 6032 689 l 6060 703 l 6089 703 q 6104 689 6104 703 l 6132 703 q 6146 689 6146 703 l 6175 703 q 6189 689 6189 703 l 6217 703 l 6275 703 l 6261 675 q 6275 661 6275 675 q 6203 646 6227 661 l 6146 661 q 5903 631 6097 661 l 5903 646 q 5617 574 5846 621 l 5617 589 q 5531 560 5559 560 q 5517 574 5531 574 q 5317 517 5517 546 q 5303 532 5317 532 q 5160 475 5303 493 q 5145 489 5160 489 q 5117 460 5145 460 l 5103 460 l 5074 475 q 5045 446 5074 446 l 4974 446 l 4974 475 q 5216 532 5153 532 q 5231 517 5216 517 q 5646 631 5231 564 l 5646 617 q 5817 675 5817 664 l 5846 661 q 6032 703 5885 685 m 927 117 l 941 88 l 941 -26 q 1042 -255 989 -255 q 1084 -155 1051 -155 l 1113 -155 l 1113 -183 l 1084 -227 l 1099 -255 l 1099 -298 q 1156 -326 1156 -309 q 1328 -126 1239 -326 q 1385 -69 1356 -69 q 1371 -55 1385 -55 q 1671 374 1464 176 q 1399 460 1427 426 l 1371 446 q 1342 475 1342 446 q 1328 460 1328 475 l 1199 489 q 1156 374 1199 374 l 1171 346 q 1127 88 1147 88 q 1141 74 1127 74 q 1099 -112 1124 -73 q 1113 -126 1113 -112 l 1084 -140 q 1070 -98 1070 -113 q 1084 74 1070 -75 l 1113 74 q 1084 102 1113 102 q 1141 346 1133 346 l 1127 374 l 1171 460 l 1141 460 l 1156 489 q 1113 503 1141 489 q 941 160 1034 503 q 927 117 941 117 m 1843 403 q 1828 417 1843 417 l 1799 374 l 1799 360 q 1928 317 1833 360 l 1928 332 l 1971 403 l 1957 431 q 1843 403 1849 403 m 1313 -197 l 1328 -227 l 1299 -298 q 1699 -183 1409 -255 q 1857 -98 1840 -98 q 1785 -26 1785 -35 l 1785 45 l 1871 288 q 1785 346 1858 288 l 1728 346 q 1514 102 1514 192 q 1442 -26 1474 84 q 1356 -183 1430 -26 q 1313 -197 1329 -197 m 1813 17 q 1900 -41 1828 -41 l 1914 -41 q 1971 3 1950 3 l 1957 31 l 1971 117 q 1914 217 1937 217 q 1813 17 1885 217 m 1070 -340 q 1056 -398 1070 -373 l 1070 -398 l 1042 -512 l 1056 -512 q 1185 -369 1093 -499 l 1185 -355 l 1141 -355 l 1070 -340 z "},"_":{"ha":541,"x_min":41,"x_max":487,"o":"m 271 216 l 271 201 l 300 216 l 458 216 q 487 187 487 212 l 487 173 q 41 130 219 159 l 41 187 l 84 187 q 98 173 98 187 q 271 216 159 201 z "},"`":{"ha":408,"x_min":80,"x_max":353,"o":"m 353 805 l 307 805 l 127 964 q 96 991 99 987 q 85 1019 80 1008 q 99 1054 104 1059 q 91 1046 91 1046 q 118 1038 107 1046 q 156 1006 146 1016 l 353 805 z "},"a":{"ha":518,"x_min":37,"x_max":455,"o":"m 37 610 l 95 610 q 167 582 167 607 l 196 596 q 354 481 307 562 q 455 208 455 422 l 455 193 q 326 49 406 49 q 210 35 266 49 q 81 150 81 65 l 81 164 q 138 279 81 216 l 167 265 l 210 294 l 369 294 l 369 279 q 340 250 369 250 l 311 250 q 296 265 296 250 q 123 193 123 238 l 123 135 q 282 77 123 88 q 427 222 363 77 q 239 524 347 524 q 37 582 239 538 l 37 610 z "},"b":{"ha":628,"x_min":72,"x_max":576,"o":"m 130 1269 q 158 1240 158 1264 l 144 1182 q 158 1168 144 1168 l 144 1067 l 144 923 l 158 851 q 130 822 130 846 l 158 822 l 144 750 l 144 663 q 158 606 144 631 q 115 361 134 505 q 130 303 130 336 q 115 289 130 289 l 130 260 l 115 231 q 273 102 115 155 q 518 245 416 117 l 533 245 l 533 275 q 231 476 533 476 l 187 476 l 187 519 l 201 519 q 576 332 539 519 l 576 318 q 273 73 576 102 l 201 73 q 86 217 86 132 q 100 231 100 217 l 86 231 q 72 217 86 217 l 72 231 l 86 260 q 72 303 72 288 q 86 318 86 303 q 72 332 72 318 l 100 332 q 86 376 86 360 q 115 663 86 525 q 100 707 100 692 l 115 736 l 100 822 q 115 836 100 836 l 100 865 l 100 880 q 115 894 100 894 l 100 923 l 100 1038 l 130 1038 l 100 1110 q 115 1211 115 1167 q 100 1254 100 1239 l 130 1269 z "},"c":{"ha":500,"x_min":37,"x_max":527,"o":"m 354 623 l 354 608 l 383 623 l 412 623 q 441 593 441 618 q 138 450 156 547 q 81 406 117 450 l 95 378 l 95 305 q 81 291 95 291 q 224 161 105 161 q 412 118 224 118 q 527 132 425 118 l 527 118 q 484 75 527 98 l 326 75 q 66 233 66 127 q 37 262 66 262 q 66 363 42 363 l 52 392 q 224 579 52 488 q 239 565 224 565 q 354 623 239 596 z "},"d":{"ha":678,"x_min":28,"x_max":547,"o":"m 504 1239 l 518 1239 q 547 1210 547 1234 l 532 1109 l 547 1109 q 532 863 540 986 l 528 820 l 528 705 l 514 676 q 529 622 531 638 l 515 507 q 534 299 525 403 q 444 164 489 231 q 271 92 283 92 q 215 129 243 111 l 186 115 q 28 302 28 190 q 364 572 113 743 l 473 498 l 479 817 q 504 1080 492 949 l 489 1109 l 489 1138 q 504 1152 489 1152 q 489 1196 489 1180 q 504 1239 504 1223 m 100 432 l 71 446 l 85 417 l 85 331 q 71 317 85 317 q 186 158 96 202 l 215 172 q 242 136 242 172 q 505 412 505 183 l 466 461 l 364 546 q 225 580 316 586 q 100 432 100 533 z "},"e":{"ha":576,"x_min":-63,"x_max":528,"o":"m 124 665 l 124 651 q 168 665 152 665 q 369 550 369 621 q 110 406 345 406 l -5 406 l -5 277 q 340 176 81 233 q 383 161 340 161 l 427 161 l 528 176 l 528 147 q 498 118 528 118 l 398 118 q 52 190 149 190 q -63 435 -49 215 q 96 665 -63 601 l 124 665 m -5 464 l -5 450 l 38 450 q 326 550 326 450 l 326 565 q 138 623 236 623 q -5 464 -5 623 z "},"f":{"ha":507,"x_min":32,"x_max":507,"o":"m 334 1167 l 478 1167 l 478 1138 q 191 1008 191 1138 q 161 1037 161 1008 l 161 1080 q 334 1167 214 1167 m 147 1023 q 191 937 172 1023 l 161 937 l 176 907 l 176 836 q 161 792 176 792 l 176 720 l 176 562 q 262 547 252 547 q 306 562 290 562 l 334 547 q 378 562 362 562 l 378 547 l 406 562 l 507 547 q 306 504 507 515 l 306 519 q 291 504 291 519 l 219 519 q 176 504 191 504 l 176 360 q 161 346 176 346 l 176 317 l 176 -28 q 147 -58 176 -58 q 161 -72 147 -72 q 32 -259 115 -259 l 60 -216 l 46 -216 q 133 72 133 -113 l 133 144 q 147 159 133 159 l 133 187 q 147 231 147 215 l 133 231 l 147 259 q 133 274 147 274 q 147 288 133 288 l 133 389 l 133 404 q 147 461 133 436 q 133 504 133 489 l 46 504 l 46 533 q 75 562 51 562 q 133 547 100 547 l 133 692 l 161 734 l 147 734 q 133 720 147 720 l 133 778 q 147 792 133 792 l 133 821 l 133 922 l 147 1023 z "},"g":{"ha":673,"x_min":6,"x_max":568,"o":"m 323 683 l 352 683 q 539 582 425 683 l 539 539 l 525 539 q 323 654 456 607 q 78 222 154 654 q 222 136 78 146 q 467 337 395 136 l 452 337 q 525 467 492 467 l 553 467 l 553 438 q 568 366 553 390 l 553 279 l 568 251 l 525 64 l 539 35 q 222 -354 373 -354 l 78 -354 q 20 -311 78 -322 q 6 -268 6 -283 l 35 -254 q 78 -296 35 -296 q 92 -326 92 -296 q 438 -66 342 -326 q 496 20 482 20 q 481 35 496 35 q 525 351 510 182 q 452 193 497 351 l 352 121 l 338 121 l 309 136 l 309 121 q 323 106 323 121 q 222 92 279 106 q 35 237 35 106 l 64 237 l 50 265 l 50 309 q 323 683 127 683 z "},"h":{"ha":753,"x_min":105,"x_max":656,"o":"m 163 1152 l 178 1152 q 163 764 163 886 q 130 655 146 709 l 142 616 l 142 239 l 130 201 l 142 201 q 364 616 262 615 q 411 635 390 617 q 656 258 656 479 l 656 163 l 633 163 q 493 522 633 367 q 435 598 434 570 q 258 390 258 525 q 153 87 208 361 l 118 87 l 106 182 l 106 465 q 118 541 106 508 q 106 598 109 570 q 120 864 105 616 q 134 994 120 916 l 120 1023 q 163 1152 134 1152 z "},"i":{"ha":153,"x_min":-57,"x_max":130,"o":"m -28 844 q 15 801 15 844 l 44 815 l 87 815 q 130 758 109 815 q 116 714 116 730 l 73 714 q 44 743 44 714 q 73 772 73 743 q -57 829 -57 801 l -28 844 m 87 570 l 87 556 l 73 527 l 87 527 q 102 541 87 541 l 102 354 q 87 296 102 321 q 116 109 102 275 l 87 95 q 58 254 58 151 l 58 426 q 73 441 58 441 l 58 469 l 58 541 q 87 570 63 570 z "},"j":{"ha":300,"x_min":-191,"x_max":234,"o":"m 90 861 l 134 861 q 234 803 211 861 q 191 731 216 731 l 162 731 q 134 760 134 731 l 134 774 l 191 774 l 191 803 q 90 846 90 812 l 90 861 m 176 544 l 220 544 l 220 227 q 168 -138 194 44 l 182 -167 q 25 -540 73 -540 l -76 -540 q -163 -496 -151 -540 l -148 -467 q -191 -395 -191 -467 q -177 -338 -177 -370 l -163 -338 q -134 -367 -134 -342 l -134 -482 l -62 -496 l -33 -496 q 97 -338 63 -496 l 125 -352 l 111 -323 l 162 25 l 148 54 l 191 270 l 176 356 l 176 443 q 191 500 176 475 q 176 544 176 528 z "},"k":{"ha":682,"x_min":84,"x_max":583,"o":"m 84 1210 l 98 1210 q 127 1181 127 1206 l 127 1167 q 156 836 127 909 q 142 821 156 821 l 156 720 l 156 547 l 142 519 l 185 490 l 185 504 q 170 519 170 504 q 424 746 335 722 l 424 760 l 452 760 q 481 732 481 756 l 481 718 q 271 562 302 648 q 243 504 243 562 q 569 127 445 363 l 583 99 l 555 84 q 199 475 380 355 q 142 418 199 453 l 156 346 q 142 216 156 294 q 156 173 158 184 l 142 86 l 113 86 q 98 187 113 130 q 127 216 127 187 q 98 245 98 216 l 98 259 q 113 274 98 274 l 98 302 q 113 317 98 317 q 98 332 113 332 l 113 404 l 113 461 q 98 475 113 475 q 113 519 113 503 l 98 547 q 113 591 113 575 l 98 619 l 127 677 l 98 692 l 113 764 l 98 821 l 113 821 q 84 1052 98 836 l 98 1052 l 84 1080 q 98 1095 84 1095 l 84 1124 l 84 1210 z "},"l":{"ha":266,"x_min":111,"x_max":155,"o":"m 111 1152 l 155 1152 l 155 446 q 140 432 155 432 l 155 404 l 155 201 q 140 187 155 187 l 155 159 l 155 115 l 111 115 l 111 259 q 125 274 111 274 l 111 302 l 111 1152 z "},"m":{"ha":951,"x_min":39,"x_max":910,"o":"m 205 700 l 220 700 q 385 498 317 700 l 399 498 q 699 700 548 700 l 714 700 q 910 212 842 700 l 910 181 l 865 181 q 669 653 820 655 q 474 498 474 591 l 444 498 q 399 264 444 264 q 369 296 369 264 l 369 404 q 189 653 309 653 q 144 623 144 638 q 100 638 116 638 q 205 700 123 700 m 100 623 l 129 623 l 85 342 l 94 228 l 80 228 q 109 165 91 165 q 94 119 94 136 l 64 119 q 39 249 64 139 l 54 249 l 39 279 q 100 623 58 623 z "},"n":{"ha":622,"x_min":23,"x_max":544,"o":"m 256 716 l 299 716 q 528 433 528 680 q 543 409 536 420 q 528 397 543 409 q 544 405 544 405 l 518 267 l 526 251 l 532 236 q 518 186 518 216 l 489 186 l 475 243 l 489 243 q 443 589 511 491 q 328 682 376 682 l 299 682 q 68 589 172 682 q 83 578 68 578 l 68 520 l 68 370 l 54 347 q 83 324 83 344 l 83 255 l 97 186 q 83 151 83 164 l 54 151 l 39 197 l 54 197 l 39 221 l 39 301 l 25 382 l 54 382 l 25 416 l 25 474 q 39 486 25 486 q 25 520 23 511 q 241 705 59 705 q 256 693 241 693 l 256 716 z "},"o":{"ha":498,"x_min":-78,"x_max":484,"o":"m 138 677 l 224 677 q 239 663 239 677 q 254 677 254 663 q 484 518 484 677 q 368 187 484 187 q 254 144 368 158 l 224 158 l 196 144 q -50 302 -50 163 q -78 331 -78 302 q -6 576 -78 413 q 52 633 -6 613 q 138 677 66 677 m 23 547 q 239 591 176 591 l 254 562 q 37 518 136 518 l -6 460 q -35 346 -35 408 q 153 187 8 187 l 153 201 q 239 173 239 187 q 441 446 441 173 q 426 490 426 474 l 441 490 q 368 633 416 633 q 254 619 290 619 q 181 648 181 619 q 23 547 89 648 z "},"p":{"ha":640,"x_min":79,"x_max":583,"o":"m 310 656 l 368 656 q 583 469 583 656 l 583 440 q 281 166 583 248 l 209 166 q 180 195 180 166 q 541 440 541 262 l 541 469 q 526 512 526 496 l 541 512 q 368 627 541 603 q 123 425 123 602 q 137 411 123 411 l 123 339 l 123 296 l 137 224 l 123 224 l 137 195 l 137 65 l 151 -7 l 137 -7 q 235 -533 179 -125 q 220 -547 220 -533 q 235 -562 235 -547 l 192 -562 l 192 -547 q 79 310 79 20 l 94 368 q 79 483 79 424 l 165 612 q 310 656 258 656 z "},"q":{"ha":717,"x_min":75,"x_max":642,"o":"m 277 656 q 493 570 493 613 q 479 555 479 570 q 248 613 345 599 q 104 368 147 613 q 334 210 104 257 q 551 340 424 210 l 551 382 l 536 469 l 551 498 q 536 541 536 526 q 551 585 551 569 l 579 585 q 637 412 637 547 q 608 326 608 364 l 608 282 l 623 181 l 608 181 q 637 66 642 114 l 623 -72 q 637 -130 620 -100 q 623 -187 623 -155 q 637 -245 623 -220 q 623 -302 623 -270 l 623 -332 q 637 -346 623 -346 l 623 -374 l 623 -389 l 637 -418 l 594 -418 l 594 -374 l 608 -346 q 580 -317 580 -346 q 594 -259 580 -285 l 580 -231 q 594 -130 580 -186 q 565 268 579 69 l 551 268 q 334 167 415 167 l 306 167 q 90 282 90 244 q 75 326 75 310 l 90 326 l 75 354 l 75 426 q 277 656 104 656 z "},"r":{"ha":522,"x_min":99,"x_max":531,"o":"m 358 734 l 373 734 q 531 532 505 734 l 503 518 q 344 705 439 705 q 243 648 344 687 q 185 576 215 582 q 171 590 185 590 q 127 504 171 515 l 142 475 q 171 71 142 295 l 142 57 l 127 57 l 113 158 q 127 172 113 172 q 99 345 113 197 l 113 374 q 99 417 99 402 q 286 720 99 625 q 358 734 310 734 z "},"s":{"ha":548,"x_min":49,"x_max":510,"o":"m 481 807 q 510 778 510 802 l 510 764 l 481 764 q 467 778 467 764 l 438 764 l 423 764 l 438 792 l 423 792 q 380 749 423 772 l 323 749 q 308 764 308 749 l 164 706 l 164 648 l 380 519 q 481 332 481 408 l 467 332 l 481 302 q 236 144 410 144 q 49 317 49 170 l 49 332 l 77 346 l 92 346 q 236 187 92 187 q 438 302 341 187 l 438 346 q 265 547 438 456 q 236 576 236 547 l 208 562 q 121 634 148 582 l 121 663 q 481 807 121 807 z "},"t":{"ha":472,"x_min":19,"x_max":451,"o":"m 77 777 l 91 777 q 120 748 120 772 l 120 648 q 105 633 120 633 l 120 604 q 105 590 120 590 q 220 503 105 503 l 220 532 l 278 532 q 336 517 311 532 q 393 532 361 532 l 422 532 q 451 503 451 528 q 105 460 184 483 l 120 431 l 120 359 l 105 273 q 120 201 120 249 l 120 186 l 105 157 q 235 129 127 157 q 422 172 262 129 l 437 172 q 235 85 437 115 q 77 215 77 95 l 77 431 q 19 460 77 460 l 19 489 l 77 547 q 62 561 77 561 l 77 633 l 77 777 z "},"u":{"ha":699,"x_min":78,"x_max":611,"o":"m 121 720 l 121 663 l 106 634 q 154 606 154 627 q 140 592 154 592 l 154 563 l 154 520 q 140 505 154 505 q 313 148 222 153 q 568 432 516 136 q 582 533 568 515 q 568 591 568 558 l 568 605 q 582 619 568 619 l 568 648 l 568 663 l 611 663 l 611 504 q 597 490 611 490 l 611 461 l 611 446 q 457 148 611 290 l 357 104 l 357 119 l 328 104 q 97 450 194 104 q 111 465 97 465 l 78 519 q 92 576 92 544 l 78 634 l 92 663 l 92 706 l 121 720 z "},"v":{"ha":495,"x_min":17,"x_max":463,"o":"m 45 705 l 60 705 q 262 215 146 313 l 262 186 l 291 186 q 363 488 308 347 l 349 517 q 449 705 420 705 l 463 705 l 463 676 q 391 575 429 575 l 406 546 l 406 517 q 391 503 406 503 l 406 474 q 349 345 368 351 q 363 330 349 330 q 305 128 349 209 l 262 128 q 17 690 105 302 l 45 705 z "},"w":{"ha":798,"x_min":58,"x_max":720,"o":"m 72 734 l 101 734 l 130 533 q 115 490 115 505 q 216 259 170 300 q 259 144 259 187 l 302 173 q 288 187 302 187 l 302 259 l 302 562 q 332 591 307 591 l 346 591 q 374 562 374 586 l 374 547 l 360 519 q 418 418 395 519 q 547 259 523 259 q 634 231 547 231 q 648 360 648 309 l 648 461 l 677 461 q 663 504 663 489 q 706 720 663 720 q 720 677 720 692 q 634 173 692 173 l 619 173 q 475 274 535 173 q 374 446 442 274 l 346 446 l 346 302 q 332 288 346 288 l 346 259 l 346 245 q 288 101 328 101 l 245 101 q 86 490 86 363 q 101 504 101 490 q 72 533 72 504 q 86 547 72 547 q 58 663 58 636 q 72 734 72 686 z "},"x":{"ha":563,"x_min":14,"x_max":547,"o":"m 43 706 q 216 562 131 706 q 273 475 273 538 l 302 475 q 418 605 302 516 l 418 619 l 446 619 q 475 591 475 615 q 331 446 374 519 l 331 418 q 547 201 363 418 l 547 173 l 533 173 q 302 404 522 173 q 58 28 90 148 l 43 28 q 14 58 14 28 q 259 432 14 92 q 86 648 259 473 q 100 663 100 648 l 86 663 q 72 648 86 648 l 43 692 l 43 706 z "},"y":{"ha":566,"x_min":7,"x_max":554,"o":"m 511 608 q 554 564 532 608 q 468 420 468 438 l 237 46 q 108 -98 153 -63 q 93 -184 93 -174 l 64 -170 l 79 -199 q 35 -242 79 -220 l 7 -242 l 7 -228 q 208 60 132 29 q 266 161 208 89 l 266 176 q 165 277 165 176 q 35 564 139 277 l 64 579 q 108 492 93 579 q 93 478 93 492 l 122 478 l 122 449 l 108 420 l 122 420 q 136 435 122 435 q 252 219 155 325 l 266 219 q 425 492 371 338 q 468 522 444 522 q 453 536 468 536 q 511 608 481 602 z "},"z":{"ha":682,"x_min":1,"x_max":620,"o":"m 476 691 q 490 663 476 663 q 245 403 490 631 q 87 216 243 343 q 73 173 87 201 l 144 158 q 260 173 224 173 l 260 158 q 361 187 333 187 l 361 173 l 390 187 l 548 187 l 620 173 l 620 130 q 390 158 425 148 q 303 130 342 130 l 260 130 l 231 144 q 202 115 231 115 l 159 115 q 144 130 144 115 l 116 115 q 1 158 1 130 q 433 648 319 548 l 418 648 q 289 619 325 619 l 245 619 q 144 562 245 562 l 130 591 q 476 691 321 691 m 130 576 l 144 547 q 29 504 47 504 l 29 547 l 130 576 z "},"{":{"ha":599,"x_min":41,"x_max":545,"o":"m 430 1167 l 444 1138 q 271 1095 404 1113 l 271 1109 l 242 1095 l 228 1095 l 199 1109 l 199 1095 q 214 1080 214 1095 q 127 1037 194 1080 l 113 1066 q 228 1138 208 1138 q 430 1167 420 1167 m 113 1052 l 127 1023 q 98 937 98 975 l 98 864 q 228 562 98 809 l 228 533 l 184 475 q 214 389 214 428 l 214 360 q 199 346 214 346 q 214 302 214 318 q 170 115 170 161 q 228 72 228 94 q 242 86 242 72 q 415 58 391 68 q 473 72 440 72 l 545 72 l 545 58 q 487 28 522 58 l 387 28 q 372 43 372 28 l 343 28 q 127 159 127 28 l 184 360 q 69 461 184 461 l 69 490 q 98 519 74 519 l 170 519 l 170 619 q 41 850 136 619 q 113 1052 55 1052 z "},"}":{"ha":599,"x_min":41,"x_max":545,"o":"m 170 1267 q 184 1253 184 1267 l 257 1267 l 357 1267 q 545 1037 481 1179 q 372 778 545 953 l 372 749 q 430 677 430 706 q 329 576 430 654 l 329 533 q 415 288 329 515 l 415 274 q 228 86 415 86 q 142 58 228 72 q 41 72 123 72 q 271 130 41 101 q 300 144 271 144 q 343 130 328 130 l 329 159 q 372 259 357 159 l 286 533 l 286 562 q 372 663 286 663 l 372 692 q 329 764 329 692 l 329 792 q 502 1052 502 982 q 387 1225 387 1162 l 372 1225 q 55 1196 176 1225 l 55 1225 l 69 1253 l 98 1239 l 170 1267 z "},"¨":{"ha":489,"x_min":41,"x_max":435,"o":"m 50 947 l 98 996 q 115 1004 107 1004 q 134 994 123 1004 l 180 945 q 187 928 187 935 q 179 909 187 919 l 132 859 q 115 847 121 847 q 98 855 106 847 l 47 913 q 41 929 41 922 q 50 947 41 938 m 298 947 l 346 996 q 363 1004 355 1004 q 381 995 370 1004 l 428 945 q 435 928 435 935 q 427 910 435 919 l 380 859 q 363 847 368 847 q 346 855 353 847 l 294 914 q 288 929 288 922 q 298 947 288 938 z "},"©":{"ha":1389,"x_min":166,"x_max":1181,"o":"m 316 113 q 308 112 309 111 q 304 114 307 113 q 293 119 298 115 q 278 125 286 124 q 263 132 271 127 l 256 136 l 245 149 l 236 162 l 235 165 q 233 174 235 170 q 229 184 231 177 l 227 189 l 228 201 q 227 227 229 214 q 223 272 223 243 q 226 334 223 296 q 227 351 227 351 q 231 376 229 372 q 232 380 232 378 q 237 397 233 390 q 241 407 239 401 q 245 420 243 417 q 250 437 246 424 q 253 449 252 448 q 258 484 256 452 q 261 516 258 494 q 262 525 262 522 q 265 538 265 537 l 267 543 l 267 555 q 264 575 267 564 q 262 604 262 582 q 262 626 261 621 q 263 633 263 629 q 265 651 263 646 q 269 694 269 662 q 270 712 269 703 l 271 720 l 269 722 l 268 724 l 269 729 q 268 734 269 734 q 267 736 267 735 q 244 744 268 743 l 235 745 l 228 747 q 218 751 220 751 q 214 752 217 750 q 206 757 209 755 q 199 761 201 759 q 194 761 199 762 l 189 760 l 183 763 q 176 768 178 766 l 175 771 l 173 770 q 168 781 166 767 q 170 794 169 785 q 175 829 175 817 l 175 836 l 176 837 q 180 846 178 838 q 185 856 182 856 q 187 853 186 856 q 189 850 188 850 q 191 850 190 851 q 205 844 193 846 q 221 844 216 843 q 236 844 227 846 l 245 844 l 251 840 q 260 833 256 838 l 264 829 l 273 828 q 286 824 283 826 q 300 819 289 822 l 307 818 l 309 819 q 330 815 317 821 l 334 814 l 343 814 q 361 811 361 814 q 363 810 361 810 q 369 805 365 810 l 374 800 l 381 800 q 393 797 390 799 q 401 795 394 796 q 417 791 415 792 q 429 785 427 788 l 432 782 l 431 779 l 431 777 l 433 775 l 435 774 l 441 774 l 449 775 l 454 773 q 463 769 460 770 q 469 765 467 768 q 479 760 471 760 q 488 755 488 761 l 488 753 l 490 753 q 493 753 492 752 q 500 745 500 755 l 500 740 l 503 739 q 507 734 505 736 l 509 733 l 509 726 l 509 720 l 506 715 q 495 705 501 705 l 494 705 l 494 688 l 494 673 l 496 669 q 498 650 498 665 q 496 630 498 634 l 494 628 l 494 624 l 495 620 l 498 620 q 503 622 500 619 q 511 623 507 625 q 522 621 515 621 q 533 616 531 621 q 536 614 533 616 q 541 611 538 612 l 544 610 l 549 611 q 555 613 553 612 q 562 616 557 614 l 566 616 l 568 621 l 571 624 l 576 624 q 585 622 583 624 q 594 625 589 618 l 597 630 l 601 629 l 605 629 l 606 630 l 606 632 l 613 631 q 623 631 621 631 l 626 632 l 626 635 q 629 647 626 639 l 631 654 l 630 665 l 629 676 l 628 677 q 633 689 626 681 q 637 696 637 694 l 638 699 l 636 701 l 634 703 l 635 705 q 635 711 635 707 l 636 715 l 639 718 q 637 736 647 727 q 632 749 629 743 q 634 758 634 753 q 635 764 634 762 q 636 766 636 764 q 637 770 636 769 q 638 772 639 772 q 640 776 637 774 l 641 778 l 643 775 l 645 773 l 647 774 q 652 772 648 774 q 666 770 659 768 q 675 767 673 773 l 676 764 l 681 767 q 688 770 686 770 l 691 770 l 692 768 q 694 768 693 766 q 701 770 694 771 l 705 769 l 712 760 q 722 750 721 749 q 731 746 724 751 q 736 743 736 743 l 738 743 l 739 741 l 741 743 l 744 744 l 749 743 l 755 743 l 758 745 l 762 746 l 778 745 q 794 747 794 745 q 796 750 794 748 q 801 753 799 753 l 804 753 l 806 757 l 809 761 l 814 760 q 820 762 818 758 q 821 770 821 764 q 823 777 821 775 q 824 783 824 779 l 824 787 l 828 791 q 832 816 838 802 l 830 820 l 832 821 q 834 823 833 823 q 839 825 836 823 l 842 827 l 846 827 l 849 826 l 854 829 l 859 833 l 868 833 q 880 836 875 834 q 889 838 884 838 l 895 838 l 898 835 l 902 832 l 905 834 q 911 837 909 837 l 914 837 l 918 832 l 923 827 l 926 827 q 932 828 928 827 q 937 827 935 829 q 939 827 937 827 q 945 824 941 826 q 952 821 949 821 l 956 821 l 958 819 l 960 817 l 972 817 l 983 817 l 985 816 q 987 814 985 815 q 993 811 991 812 l 998 808 l 1001 810 q 1010 812 1005 812 l 1015 813 l 1016 812 q 1018 808 1017 810 l 1019 804 l 1021 804 q 1025 806 1022 804 q 1045 802 1032 810 l 1047 800 l 1051 803 q 1061 803 1058 806 q 1070 804 1065 800 q 1076 806 1074 808 q 1080 804 1076 804 q 1084 806 1083 804 q 1089 806 1084 808 q 1097 802 1093 805 q 1101 799 1099 800 l 1104 798 l 1107 802 l 1109 804 l 1112 802 q 1115 800 1113 800 q 1122 798 1116 801 q 1142 797 1136 793 q 1150 799 1144 798 l 1156 800 l 1158 802 q 1160 804 1159 805 q 1164 808 1160 804 q 1169 812 1168 812 q 1172 814 1170 812 q 1181 817 1179 821 q 1181 806 1181 814 q 1177 792 1180 798 q 1177 752 1171 779 q 1179 741 1178 745 l 1179 735 l 1177 729 l 1174 723 l 1173 711 q 1172 692 1171 694 q 1173 681 1173 691 q 1177 608 1173 637 q 1178 599 1178 604 l 1178 593 l 1176 591 l 1174 589 l 1174 586 q 1177 575 1174 583 l 1180 568 l 1179 564 q 1178 555 1178 559 q 1176 543 1177 547 q 1175 530 1175 541 l 1175 521 l 1173 519 l 1171 516 l 1172 511 q 1175 495 1173 501 l 1175 490 l 1174 486 q 1173 473 1173 481 l 1173 464 l 1175 463 l 1177 460 l 1177 457 q 1175 448 1177 454 l 1173 442 l 1173 439 q 1174 421 1175 437 l 1173 406 l 1175 398 q 1177 368 1177 381 q 1175 349 1177 358 l 1173 342 l 1170 338 l 1167 335 l 1159 334 q 1126 330 1134 329 q 1103 327 1118 330 q 1079 323 1086 323 q 1057 329 1070 323 q 1036 334 1046 334 q 1027 336 1030 334 q 1024 337 1025 336 q 1002 347 1010 341 l 997 349 l 990 351 q 979 353 987 351 q 966 355 971 355 l 960 356 l 958 357 q 947 376 945 368 l 947 378 l 944 379 q 922 390 924 389 q 919 391 919 391 q 905 399 918 395 q 874 418 884 406 q 866 425 873 420 q 863 429 863 427 q 850 437 861 434 q 843 441 843 439 q 842 441 843 441 q 837 443 837 443 q 832 446 834 446 q 827 450 827 446 q 825 450 827 450 q 817 463 819 452 l 816 467 l 812 469 q 805 470 806 473 q 801 465 804 469 l 797 462 l 796 458 l 795 453 l 791 448 q 779 441 785 442 q 751 411 763 436 q 742 396 745 397 q 741 395 742 396 q 733 391 740 394 q 705 368 705 379 q 704 366 705 366 q 695 356 703 366 l 687 347 l 683 347 l 679 347 l 675 344 q 671 338 672 341 q 667 334 669 336 q 665 331 665 333 q 663 326 665 328 q 658 322 659 323 q 650 314 654 317 q 637 299 642 309 q 625 284 634 292 q 615 278 617 277 q 608 273 612 279 q 604 269 605 269 q 602 267 603 269 q 599 261 602 266 q 597 256 597 258 q 594 250 597 255 q 592 246 592 247 q 591 243 593 245 q 588 237 589 242 q 583 226 587 231 l 579 222 l 572 223 l 565 224 l 559 220 q 549 214 551 214 q 544 212 546 214 q 542 210 543 210 q 534 207 540 210 q 519 200 526 203 q 493 187 509 196 q 479 180 485 182 q 469 174 475 177 q 452 166 463 170 q 446 164 449 165 q 429 160 445 163 q 410 155 415 157 q 404 152 405 153 q 385 142 394 148 q 382 141 383 141 q 376 136 382 141 q 371 133 372 133 q 368 131 371 133 q 342 123 357 125 q 326 117 331 121 q 316 113 322 114 z "},"´":{"ha":408,"x_min":41,"x_max":353,"o":"m 238 1006 q 276 1038 262 1030 q 303 1046 290 1046 q 339 1033 326 1046 q 353 998 353 1019 q 343 970 353 983 q 311 943 332 956 l 87 805 l 41 805 l 238 1006 z "},"¸":{"ha":372,"x_min":41,"x_max":317,"o":"m 41 -197 q 144 -232 98 -232 q 208 -217 189 -232 q 227 -172 227 -203 q 194 -129 227 -142 q 125 -118 167 -118 q 102 -119 114 -118 l 134 0 l 177 0 l 152 -71 q 194 -67 174 -68 q 285 -95 252 -67 q 317 -172 317 -122 q 278 -253 317 -223 q 169 -283 238 -283 q 41 -262 95 -283 l 41 -197 z "},"Á":{"ha":1088,"x_min":41,"x_max":1034,"o":"m 1034 1181 l 1034 1166 q 761 864 1034 1085 l 746 864 l 746 892 l 1020 1181 l 1034 1181 m 545 849 q 746 389 631 849 q 833 72 791 349 l 833 57 l 819 57 q 732 331 795 57 q 689 432 713 331 l 674 432 q 271 331 411 345 q 84 43 134 43 l 98 14 q 55 -43 77 -43 l 41 -43 q 271 417 41 41 q 545 849 446 849 m 501 791 l 300 389 l 314 389 q 674 490 439 389 q 501 806 592 806 l 501 791 z "},"É":{"ha":800,"x_min":41,"x_max":746,"o":"m 746 1454 l 746 1440 q 357 1195 505 1232 l 343 1223 l 343 1238 q 473 1296 362 1238 q 487 1281 473 1281 q 732 1454 490 1327 l 746 1454 m 41 1109 l 55 1109 q 242 1036 88 1065 l 242 1008 l 271 1022 q 588 936 588 958 l 516 922 l 473 922 q 444 950 444 922 l 415 936 q 98 1022 326 979 q 156 590 113 794 l 314 590 q 329 576 329 590 l 357 590 l 473 590 q 487 576 487 590 l 516 590 l 646 590 q 674 562 674 586 l 674 547 l 156 547 q 127 518 156 518 q 156 490 132 490 q 142 446 156 474 q 271 100 180 100 q 286 86 271 86 l 415 86 q 444 57 444 81 q 559 86 496 86 l 559 72 q 646 100 618 100 q 660 86 646 86 l 660 100 q 646 115 646 100 l 674 115 l 674 72 q 574 28 574 43 l 501 43 l 329 43 q 314 57 314 43 q 271 43 286 43 q 113 417 143 43 l 113 547 q 69 576 69 547 q 98 604 98 576 l 98 619 q 69 849 98 639 l 69 892 l 84 922 l 55 922 l 55 994 l 69 1022 l 55 1022 q 41 1008 55 1008 l 41 1109 z "},"Ê":{"ha":1389,"x_min":22,"x_max":1433,"o":"m 481 67 q 470 82 479 67 q 464 87 462 96 q 461 79 466 79 q 457 87 456 79 q 456 97 459 96 q 432 98 453 98 q 407 97 411 98 q 402 85 404 95 q 396 76 400 75 q 390 86 393 76 q 380 98 387 96 q 330 97 373 99 q 277 100 288 96 q 263 123 266 105 q 255 149 261 142 q 241 155 248 157 q 230 138 234 153 q 220 146 226 123 q 216 159 218 151 q 201 151 210 185 q 193 131 195 130 l 192 127 q 191 121 194 121 q 183 165 183 121 q 178 216 183 208 q 173 213 174 223 q 172 161 172 203 q 168 118 172 118 q 162 122 165 118 q 157 172 159 125 q 154 218 156 218 q 113 165 148 218 q 82 151 90 130 q 71 158 78 161 q 62 160 64 156 q 50 210 60 165 q 44 185 49 208 q 32 165 39 163 q 23 203 22 168 q 28 247 24 239 q 41 261 31 255 q 54 278 52 267 q 68 321 62 321 q 66 296 72 321 q 69 231 61 271 q 95 191 77 191 q 124 213 104 191 q 153 256 144 235 q 170 277 162 276 q 192 263 178 277 q 214 248 206 248 q 227 241 222 248 q 249 249 243 221 l 256 274 q 259 269 257 273 q 272 258 265 250 q 276 431 275 262 q 274 600 277 600 q 266 594 271 600 q 212 569 233 549 q 221 609 191 588 q 325 688 278 648 q 400 743 372 728 q 510 823 428 758 q 640 1006 666 945 q 628 1044 626 1038 q 691 1069 631 1050 q 768 1086 751 1088 q 777 1074 785 1084 q 761 1067 772 1067 l 747 1064 q 756 1057 747 1063 q 763 1048 765 1052 q 767 1040 762 1045 q 768 1042 773 1035 q 787 1029 754 1062 q 819 994 821 997 l 819 991 q 850 1016 828 994 q 895 1017 882 1049 q 909 950 904 993 q 916 903 913 908 q 930 890 918 899 q 941 900 943 882 q 930 942 941 911 q 928 1034 919 973 q 958 1092 937 1094 q 962 1091 959 1091 q 982 1077 979 1089 q 985 1019 985 1064 q 985 928 985 975 q 986 867 985 882 q 994 850 987 852 q 1007 837 1002 848 q 1023 823 1013 825 q 1032 781 1053 817 q 1025 763 1025 768 q 1034 743 1025 758 q 1056 703 1042 727 q 1101 643 1069 680 q 1152 596 1133 606 q 1176 572 1171 585 q 1176 534 1181 558 q 1161 510 1171 510 q 1132 526 1152 511 q 1110 532 1113 542 q 1109 391 1107 522 q 1118 260 1112 261 q 1128 264 1120 259 q 1140 263 1136 269 q 1149 259 1144 257 q 1160 251 1154 261 q 1162 224 1165 241 q 1164 203 1158 206 q 1181 193 1170 199 q 1190 192 1187 193 q 1200 209 1194 192 q 1226 299 1207 227 q 1250 370 1244 371 q 1253 328 1256 369 q 1252 281 1251 286 q 1259 273 1253 275 q 1281 252 1266 270 q 1301 222 1297 234 q 1320 205 1314 188 q 1316 262 1324 218 q 1321 313 1307 306 q 1341 309 1335 319 q 1353 265 1348 298 q 1363 224 1357 232 q 1387 231 1370 216 q 1418 209 1403 245 q 1415 152 1433 173 q 1409 138 1409 144 q 1361 96 1409 106 q 1341 89 1348 94 q 1333 85 1335 85 q 1326 97 1331 86 q 1269 121 1316 117 q 1211 132 1223 125 q 1175 112 1198 138 q 1152 104 1152 87 q 1139 114 1152 121 q 1133 98 1133 109 q 1130 85 1133 87 q 1109 80 1128 83 q 839 82 1090 77 q 561 90 588 86 q 520 96 533 94 q 505 96 507 98 q 497 81 502 95 q 481 67 492 67 m 138 215 q 132 209 136 214 q 80 189 101 175 q 58 255 58 202 q 57 265 58 265 q 45 255 55 265 q 34 240 36 245 q 33 210 33 234 l 34 184 q 41 209 35 186 q 60 202 54 258 q 73 168 64 168 q 83 159 77 168 q 96 157 90 151 q 138 215 102 162 m 64 302 q 58 283 58 300 q 63 289 59 274 q 64 302 68 303 m 157 229 q 173 233 164 223 q 190 245 182 243 q 191 252 197 248 q 163 250 176 261 q 157 229 149 238 m 165 126 q 166 130 168 129 q 163 129 165 132 l 165 126 m 165 210 q 166 210 165 210 q 167 212 167 210 q 165 214 167 214 q 163 212 163 214 q 165 210 163 210 m 181 231 q 181 225 179 229 q 186 222 184 220 q 181 231 188 223 m 193 208 q 192 212 194 210 q 189 212 190 214 q 193 208 191 209 m 193 223 q 201 216 200 210 q 199 228 203 222 q 193 233 195 233 q 193 223 190 233 m 224 172 q 233 164 227 160 q 247 168 239 168 q 257 172 255 168 q 262 201 258 176 q 268 236 266 227 q 264 244 269 244 q 258 241 258 244 q 245 224 258 228 q 223 228 232 220 q 212 234 214 236 q 209 218 210 231 q 200 203 208 204 q 194 196 193 201 q 196 181 196 190 q 197 173 196 173 q 202 179 198 172 q 224 172 215 197 m 204 237 q 207 237 204 237 q 208 240 210 237 q 202 244 205 244 q 199 240 199 244 q 204 237 199 237 m 219 581 q 256 605 235 581 q 296 635 278 628 q 417 705 349 656 q 481 770 485 755 q 477 780 479 780 q 457 767 474 779 q 412 736 441 755 q 302 655 382 717 q 218 587 221 593 q 219 581 215 581 m 244 195 q 242 189 244 195 q 233 183 239 184 q 224 189 227 182 q 226 200 222 195 q 236 206 230 206 q 244 195 250 206 m 230 573 q 229 574 230 573 q 227 574 227 575 q 229 568 226 574 q 233 566 233 562 q 230 573 233 571 m 279 112 q 271 142 279 139 q 265 135 264 144 q 270 115 267 125 q 279 112 279 90 m 379 140 q 375 165 377 150 q 363 192 373 180 q 363 219 354 204 q 404 233 373 234 q 440 218 434 232 q 433 175 446 203 q 420 145 419 147 q 436 142 422 142 q 452 144 450 142 q 452 155 454 146 q 445 221 450 165 q 439 287 439 278 q 433 285 439 292 q 422 281 427 278 q 396 308 418 283 q 365 331 374 332 q 327 294 355 330 q 284 214 298 258 q 285 157 271 169 q 292 147 292 151 q 302 142 292 142 q 331 136 313 142 q 379 140 382 118 m 287 106 q 287 106 287 106 q 288 108 288 106 q 287 110 288 110 q 285 108 285 110 q 287 106 285 106 m 343 355 q 342 447 383 388 q 320 513 316 484 q 356 543 324 543 q 425 565 388 543 q 456 604 461 587 q 378 612 454 610 q 296 608 302 614 q 293 461 294 607 q 296 313 291 315 q 316 329 300 311 q 343 355 332 347 m 297 114 q 295 109 297 114 q 293 103 292 104 q 308 104 294 102 q 330 106 322 106 q 332 110 338 106 q 314 120 325 114 q 303 124 304 125 q 297 114 302 123 m 360 463 q 339 525 368 525 q 340 495 332 521 q 353 462 348 469 q 360 463 359 455 m 443 702 q 442 702 443 702 q 408 679 441 702 q 356 644 375 656 q 344 630 337 631 q 399 629 351 629 q 448 633 448 629 q 446 650 449 638 q 443 682 442 661 q 443 702 444 702 m 372 340 q 377 340 372 340 q 382 341 381 340 q 379 348 383 342 q 375 355 376 354 q 369 353 374 357 q 363 345 363 349 q 372 340 363 340 m 365 444 q 366 444 365 444 q 367 446 367 444 q 365 448 367 448 q 363 446 363 448 q 365 444 363 444 m 372 371 q 373 371 372 371 q 374 373 374 371 q 372 375 374 375 q 370 373 370 375 q 372 371 370 371 m 372 430 q 374 434 375 433 q 370 433 372 435 l 372 430 m 379 473 q 382 496 384 488 q 373 498 378 517 q 370 474 370 488 q 379 473 370 450 m 374 445 q 375 447 374 445 q 377 454 377 450 q 374 452 377 458 q 370 443 370 446 q 374 445 370 439 m 375 363 q 376 363 375 363 q 377 366 377 363 q 375 368 377 368 q 374 366 374 368 q 375 363 374 363 m 379 203 q 375 216 382 208 q 376 208 374 214 l 379 203 m 376 517 q 377 515 376 517 q 381 515 378 513 q 386 522 385 517 q 386 527 387 527 q 379 524 385 528 q 376 517 374 521 m 379 437 q 380 437 379 437 q 380 438 380 437 q 379 440 380 440 q 377 438 377 440 q 379 437 377 437 m 377 407 q 377 396 377 407 q 380 384 377 386 q 401 402 384 382 q 415 423 418 422 q 401 426 412 425 q 385 430 391 428 q 378 430 379 433 q 377 407 377 427 m 380 102 q 382 102 380 102 q 382 104 385 102 q 378 104 380 107 q 380 102 376 102 m 382 186 q 383 186 382 186 q 384 190 384 186 q 380 194 384 194 q 378 190 376 194 q 382 186 380 186 m 382 371 q 383 371 382 371 q 384 373 384 371 q 382 375 384 375 q 380 373 380 375 q 382 371 380 371 m 394 436 q 398 434 394 436 q 414 436 402 433 q 434 448 426 439 q 443 459 443 457 q 420 478 443 461 q 395 494 397 496 q 386 458 387 477 q 394 436 385 439 m 391 511 q 389 512 391 511 q 388 513 388 513 q 390 506 387 512 q 393 505 393 500 q 391 511 393 509 m 390 115 q 391 112 390 115 q 398 116 393 109 q 400 123 403 123 q 392 121 398 123 q 390 115 387 120 m 397 137 q 429 208 430 201 q 410 217 427 216 q 391 213 393 218 q 390 171 389 208 q 397 137 391 133 m 395 98 q 390 97 391 98 q 392 89 390 95 q 399 90 394 82 q 395 98 404 98 m 391 362 q 391 360 391 362 q 405 354 392 357 q 422 355 417 351 q 437 388 428 360 q 439 421 446 416 q 412 395 435 421 q 391 362 390 368 m 408 317 q 415 307 408 317 q 425 297 422 297 q 431 314 429 297 q 434 334 433 331 q 431 341 435 340 q 411 342 427 342 q 394 339 395 342 q 408 317 393 336 m 446 480 q 446 483 446 480 q 440 502 446 486 q 425 525 433 517 q 404 525 417 532 q 397 512 391 518 q 424 490 402 506 q 446 480 446 474 m 408 129 q 409 129 408 129 q 412 133 410 129 q 410 136 414 136 q 406 133 406 136 q 408 129 406 129 m 460 490 q 468 533 463 501 q 476 569 473 566 q 479 582 479 573 q 475 591 479 591 q 472 585 472 591 q 440 555 472 569 q 409 538 409 541 q 424 533 409 535 q 452 484 448 529 q 460 490 454 457 m 463 108 q 444 127 463 123 q 413 120 425 132 q 416 106 402 108 q 434 104 420 105 q 455 103 448 104 q 463 108 463 102 m 452 440 q 443 444 452 454 q 434 434 433 435 q 443 433 434 433 q 452 440 452 433 m 441 303 q 443 307 444 306 q 439 306 441 309 l 441 303 m 448 385 q 443 357 443 362 q 448 352 443 352 q 452 375 452 352 q 452 400 452 398 l 448 385 m 451 345 q 451 345 451 345 q 452 346 452 345 q 451 348 452 348 q 449 346 449 348 q 451 345 449 345 m 460 717 q 465 722 460 717 q 484 731 469 726 q 542 734 500 736 q 584 738 584 732 q 541 750 584 748 q 485 743 498 752 q 452 712 452 720 q 460 717 452 708 m 458 357 q 459 362 460 359 q 456 362 458 364 l 458 357 m 654 631 q 667 630 654 631 q 688 634 680 629 q 703 661 696 639 q 718 709 710 684 q 726 743 726 735 q 710 752 726 751 q 671 798 682 755 q 672 880 660 840 q 712 921 684 921 q 744 925 741 921 q 736 956 747 930 q 719 983 726 983 q 701 963 713 983 q 665 907 690 942 q 637 863 641 872 q 631 820 633 854 q 603 752 627 752 q 595 750 596 752 q 595 739 593 749 q 588 726 597 729 q 531 721 580 723 q 467 706 483 719 q 458 665 451 694 q 478 632 465 635 q 492 643 492 628 q 512 673 492 668 q 549 660 533 677 q 573 639 565 642 q 605 634 582 636 q 654 631 628 633 m 464 129 q 466 129 464 129 q 469 131 469 129 q 464 134 469 132 q 459 133 459 136 q 464 129 459 129 m 496 229 q 536 235 530 307 q 538 204 538 222 q 539 186 538 186 q 549 211 541 187 q 556 273 557 235 q 547 336 556 311 q 544 456 527 387 q 577 524 561 526 q 586 515 582 522 q 590 519 590 509 q 575 590 591 563 q 538 617 559 617 q 515 611 517 617 q 523 571 513 605 q 530 522 532 537 q 516 514 528 507 q 492 551 505 522 q 485 559 486 564 q 476 511 483 553 q 475 466 469 469 q 486 456 480 462 q 497 446 491 450 q 494 425 513 435 q 477 421 486 421 q 467 417 469 421 q 466 382 466 412 q 461 308 466 352 q 468 191 457 263 q 475 186 470 177 q 496 229 481 196 m 463 440 q 463 437 463 440 q 472 432 463 434 q 483 435 481 431 q 477 444 486 440 q 465 448 468 448 q 463 440 463 447 m 467 102 q 468 102 467 102 q 469 104 469 102 q 467 106 469 106 q 466 104 466 106 q 467 102 466 102 m 480 625 q 474 625 480 625 q 467 622 467 625 q 478 605 466 618 q 495 572 491 591 q 512 537 498 552 q 525 529 525 523 q 513 565 525 534 q 500 608 502 595 q 496 623 498 621 q 480 625 494 625 m 470 168 q 471 168 470 168 q 472 169 472 168 q 470 171 472 171 q 469 169 469 171 q 470 168 469 168 m 478 75 q 481 73 478 75 q 489 78 484 72 q 495 92 495 85 q 486 98 495 98 q 475 88 477 98 q 478 75 473 77 m 481 122 q 498 153 486 77 q 513 201 507 204 q 518 160 518 199 q 522 133 518 122 q 526 159 525 144 q 525 209 528 174 q 520 248 523 244 l 518 244 q 495 191 518 239 q 476 140 472 143 q 481 122 479 138 m 477 102 q 478 102 477 102 q 479 104 479 102 q 477 106 479 106 q 475 104 475 106 q 477 102 475 102 m 487 571 q 488 571 487 571 q 489 573 489 571 q 487 575 489 575 q 486 573 486 575 q 487 571 486 571 m 494 766 q 497 763 494 766 q 502 761 499 760 q 527 780 505 762 q 528 802 549 798 q 506 802 518 804 q 494 803 494 800 l 491 803 q 488 786 487 799 q 494 766 490 773 m 490 755 q 491 755 490 755 q 492 758 492 755 q 490 760 492 760 q 489 758 489 760 q 490 755 489 755 m 490 794 q 490 794 490 794 q 489 796 489 794 q 490 798 489 798 q 492 796 492 798 q 490 794 492 794 m 497 102 q 498 102 497 102 q 498 104 498 102 q 497 106 498 106 q 495 104 495 106 q 497 102 495 102 m 500 806 q 501 806 500 806 q 502 808 502 806 q 500 810 502 810 q 498 808 498 810 q 500 806 498 806 m 504 102 q 504 102 504 102 q 505 104 505 102 q 504 106 505 106 q 502 104 502 106 q 504 102 502 102 m 504 121 q 504 121 504 121 q 505 123 505 121 q 504 125 505 125 q 502 123 502 125 q 504 121 502 121 m 530 629 q 540 629 530 629 q 553 631 551 629 q 543 650 555 633 q 517 663 532 666 q 502 637 502 661 q 506 630 502 631 q 530 629 509 629 m 507 617 q 508 617 507 617 q 509 619 509 617 q 507 621 509 621 q 505 619 505 621 q 507 617 505 617 m 507 166 q 508 152 505 152 q 511 175 511 152 q 507 166 511 199 m 510 125 q 511 125 510 125 q 511 127 511 125 q 510 129 511 129 q 509 127 509 129 q 510 125 509 125 m 538 151 q 519 111 538 106 q 513 110 513 112 q 537 105 519 99 q 555 126 556 111 q 564 162 553 142 q 588 182 575 182 q 595 198 593 182 q 610 219 596 214 q 684 223 625 223 q 769 247 744 222 q 779 307 795 271 q 762 340 762 342 q 765 301 762 338 q 756 254 768 264 q 700 244 745 244 q 645 257 654 244 q 633 326 635 269 q 616 345 631 382 q 596 270 608 323 q 574 196 585 216 q 545 175 563 175 q 539 171 540 175 q 538 151 538 168 m 583 844 q 653 937 653 918 l 651 945 q 621 913 649 945 q 557 849 593 882 q 527 813 521 816 q 549 813 539 808 q 583 844 558 818 m 532 760 q 569 760 570 758 q 563 769 569 763 q 546 774 556 774 q 530 767 536 774 q 532 760 524 760 m 546 787 q 547 787 546 787 q 548 789 548 787 q 546 791 548 791 q 545 789 545 791 q 546 787 545 787 m 556 425 q 554 415 556 425 q 552 391 551 406 q 561 350 552 376 q 573 304 570 325 q 578 285 576 284 q 582 295 580 286 q 604 363 585 304 q 632 479 624 422 q 644 544 640 536 q 657 557 648 552 q 677 584 667 563 q 686 607 688 605 q 635 613 684 610 q 585 616 586 617 q 595 588 584 615 q 604 471 621 531 q 570 450 592 427 q 563 450 565 456 q 556 425 561 443 m 557 192 q 558 195 559 194 q 554 194 557 197 l 557 192 m 564 463 q 571 492 568 463 q 565 475 566 486 q 564 463 563 465 m 565 205 q 571 224 567 208 q 574 244 575 240 l 567 225 l 565 205 m 569 621 q 570 621 569 621 q 571 623 571 621 q 569 625 571 625 q 568 623 568 625 q 569 621 568 621 m 613 786 q 616 815 619 809 q 596 821 614 821 q 569 809 578 821 q 572 783 560 797 q 613 786 604 747 m 572 467 q 573 467 572 467 q 574 469 574 467 q 572 471 574 471 q 571 469 571 471 q 572 467 571 467 m 808 95 q 814 95 808 95 q 822 96 820 94 q 824 115 824 98 q 818 140 824 132 q 792 145 811 148 q 688 152 774 143 q 588 157 602 160 q 574 132 574 155 l 574 131 q 588 102 574 106 q 699 97 602 98 q 808 95 795 96 m 584 752 q 586 752 584 752 q 586 754 588 752 q 582 754 584 757 q 584 752 580 752 m 586 472 q 587 477 588 475 q 584 477 586 479 l 586 472 m 589 488 q 590 492 591 490 q 587 490 589 493 l 589 488 m 605 825 q 610 825 605 825 q 617 827 615 825 q 621 845 620 829 q 621 861 623 861 q 603 844 619 861 q 591 826 587 827 q 605 825 595 825 m 671 174 q 705 175 671 174 q 743 191 738 176 q 736 208 747 205 q 666 209 726 210 q 606 194 606 209 q 671 174 605 172 m 642 168 q 630 171 640 171 q 621 170 621 170 q 632 166 621 170 q 642 168 643 162 m 633 888 q 630 881 630 886 q 633 881 630 876 q 633 888 635 885 m 635 402 q 636 402 635 402 q 637 404 637 402 q 635 406 637 406 q 633 404 633 406 q 635 402 633 402 m 639 441 q 640 446 641 444 q 637 444 639 447 l 639 441 m 702 1045 q 715 1059 702 1047 q 725 1070 728 1070 q 684 1058 721 1069 q 641 1041 647 1046 q 645 1013 635 1035 q 664 1005 652 1003 q 689 1019 677 1006 q 702 1045 702 1031 m 649 513 q 648 500 649 513 q 648 486 647 486 q 655 503 648 486 q 664 524 661 521 q 666 534 667 527 q 663 541 665 541 q 649 513 652 541 m 664 269 q 670 267 664 269 q 707 266 675 264 q 744 269 739 267 q 749 287 750 271 q 738 374 747 302 q 728 486 728 446 q 726 531 728 526 q 700 536 724 536 q 674 524 677 536 q 662 479 672 511 q 651 436 652 446 q 651 388 650 425 q 650 321 653 350 q 650 283 647 293 q 664 269 654 273 m 655 952 q 656 952 655 952 q 656 954 656 952 q 655 956 656 956 q 653 954 653 956 q 655 952 653 952 m 655 964 q 656 964 655 964 q 656 965 656 964 q 655 967 656 967 q 653 965 653 967 q 655 964 653 964 m 794 931 q 773 967 794 936 q 742 1008 752 998 q 726 1031 731 1019 q 719 1045 721 1044 q 710 1038 717 1046 q 667 947 656 976 q 683 960 669 941 q 724 1003 711 1004 q 755 951 736 1001 q 786 904 774 901 q 794 931 793 905 m 671 541 q 672 541 671 541 q 673 543 673 541 q 671 545 673 545 q 669 543 669 545 q 671 541 669 541 m 671 548 q 672 548 671 548 q 673 550 673 548 q 671 552 673 552 q 669 550 669 552 q 671 548 669 548 m 694 611 q 687 579 696 603 q 679 551 679 555 q 709 549 679 547 q 743 555 739 552 q 757 583 747 557 q 763 611 767 608 q 729 616 758 614 q 699 613 701 617 q 695 614 698 609 l 694 611 m 698 830 q 700 809 698 830 q 708 781 702 788 q 732 787 714 774 q 750 846 751 800 q 727 896 749 891 q 699 887 704 901 q 698 830 694 872 m 704 621 q 704 621 704 621 q 705 623 705 621 q 704 625 705 625 q 702 623 702 625 q 704 621 702 621 m 760 632 q 794 677 754 652 q 861 734 856 714 q 830 801 866 753 q 791 850 795 849 q 797 820 787 851 q 804 781 808 789 q 780 766 800 772 q 751 743 760 760 q 730 683 743 727 q 719 633 716 640 q 740 626 722 627 q 759 626 758 625 q 760 632 761 627 m 739 162 q 726 163 733 164 q 724 161 720 161 q 730 161 728 161 l 739 162 m 727 1056 q 728 1056 727 1056 q 728 1058 728 1056 q 727 1059 728 1059 q 725 1058 725 1059 q 727 1056 725 1056 m 737 755 q 738 755 737 755 q 739 758 739 755 q 737 760 739 760 q 735 758 735 760 q 737 755 735 755 m 741 1030 q 739 1038 742 1031 q 735 1046 736 1045 q 741 1030 735 1031 m 741 434 q 743 479 742 436 q 742 526 745 523 q 736 490 739 527 q 741 434 733 452 m 743 764 q 744 764 743 764 q 745 765 745 764 q 743 767 745 767 q 742 765 742 767 q 743 764 742 764 m 756 1013 q 757 1010 756 1013 q 764 1008 758 1008 q 773 1011 770 1008 q 769 1026 776 1014 q 753 1048 762 1039 q 744 1057 745 1058 q 747 1040 743 1057 q 749 1015 751 1023 l 751 1013 q 756 1013 754 1018 m 747 542 q 748 546 749 545 q 745 545 747 547 l 747 542 m 799 160 q 800 162 799 160 q 774 161 802 164 q 745 157 747 159 q 770 156 744 156 q 799 160 797 156 m 751 375 q 753 375 751 375 q 753 381 755 375 q 749 387 751 387 q 748 381 748 387 q 751 375 748 375 m 749 168 q 781 203 760 168 l 791 222 q 771 215 785 218 q 753 199 758 212 q 749 168 742 168 m 776 358 q 788 332 776 358 q 801 292 800 307 q 790 252 802 277 q 781 230 777 228 q 804 248 785 231 q 832 257 822 265 q 843 252 843 248 q 840 266 843 256 q 827 342 837 276 q 804 439 817 408 q 801 509 791 469 q 832 571 812 549 q 847 595 853 592 q 810 598 841 597 q 763 560 779 598 q 750 466 747 522 q 776 358 753 410 m 757 353 q 758 358 759 355 q 755 358 757 360 l 757 353 m 762 911 q 760 912 762 911 q 759 913 759 913 q 761 906 758 912 q 764 905 764 901 q 762 911 764 909 m 788 784 q 792 787 788 784 q 792 795 795 790 q 775 803 788 800 q 762 798 762 806 q 760 787 762 791 q 762 782 759 783 q 788 784 780 777 m 763 218 q 764 218 763 218 q 764 219 764 218 q 763 221 764 221 q 762 219 762 221 q 763 218 762 218 m 763 1075 q 764 1075 763 1075 q 764 1077 764 1075 q 763 1079 764 1079 q 762 1077 762 1079 q 763 1075 762 1075 m 768 996 q 763 998 764 999 q 773 984 771 981 q 768 996 776 987 m 779 168 q 786 168 779 168 q 795 170 793 168 q 795 191 798 172 q 791 210 793 209 q 786 204 789 210 q 773 184 783 197 q 764 169 764 171 q 779 168 765 168 m 773 894 q 770 898 773 894 q 765 901 766 901 q 764 881 764 901 q 770 861 764 861 q 782 889 780 862 q 773 894 780 886 m 791 808 q 781 832 791 826 q 770 831 771 838 q 768 811 766 817 q 781 806 770 806 q 791 808 791 806 m 861 640 q 878 711 867 691 q 885 736 889 732 q 873 726 880 741 q 817 672 860 695 q 774 635 774 649 q 795 615 774 621 q 838 617 817 610 q 861 640 860 625 m 794 989 q 794 993 794 989 q 788 1002 794 996 q 776 1006 782 1008 q 782 993 770 1004 q 794 989 794 982 m 780 1021 q 780 1021 780 1021 q 781 1023 781 1021 q 780 1025 781 1025 q 778 1023 778 1025 q 780 1021 778 1021 m 846 915 q 845 928 851 915 q 820 958 839 941 q 792 975 802 975 q 782 974 783 975 q 791 961 782 972 q 805 956 800 951 q 815 956 810 960 q 829 933 819 952 q 846 915 838 914 m 786 863 q 787 863 786 863 q 787 865 787 863 q 786 867 787 867 q 784 865 784 867 q 786 863 784 863 m 788 1013 q 790 1013 788 1013 q 790 1016 792 1013 q 785 1016 787 1019 q 788 1013 783 1013 m 796 214 q 797 214 796 214 q 798 216 798 214 q 796 218 798 218 q 794 216 794 218 q 796 214 794 214 m 805 998 q 802 1002 805 998 q 798 1004 800 1006 q 803 996 796 1002 q 805 998 810 991 m 800 899 q 798 894 800 899 q 802 877 796 888 q 838 825 808 865 q 871 788 868 785 q 878 818 875 791 q 878 844 880 844 q 841 879 875 844 q 806 912 808 914 q 800 899 804 909 m 881 856 q 882 856 881 856 q 881 860 883 856 q 883 863 878 865 q 889 869 889 860 q 876 896 889 879 q 854 913 863 913 q 855 890 836 913 q 861 879 864 878 q 821 932 849 889 q 808 945 809 949 q 803 943 807 941 l 838 900 q 869 870 855 880 q 869 875 866 875 q 878 865 876 875 q 881 856 880 856 m 815 979 q 816 979 815 979 q 817 981 817 979 q 815 983 817 983 q 814 981 814 983 q 815 979 814 979 m 986 100 q 974 114 985 102 q 962 137 964 125 q 966 170 960 148 q 970 195 971 191 q 962 209 970 199 q 983 260 936 239 q 1033 273 1005 271 q 1069 280 1060 275 q 1086 301 1078 285 q 1092 348 1093 317 q 1091 433 1090 378 q 1042 576 1088 541 q 889 587 996 611 q 851 550 876 585 q 824 499 827 516 q 844 376 820 482 q 882 225 868 271 q 900 163 896 180 q 905 135 905 146 q 902 120 905 123 q 889 117 898 117 q 827 217 859 117 q 823 224 824 224 q 817 218 822 224 q 826 173 806 205 q 846 113 846 141 q 854 103 847 105 q 914 101 862 102 q 978 99 966 100 l 986 100 m 889 903 q 862 946 889 913 q 827 979 835 979 q 865 920 812 979 q 889 903 889 895 m 859 1014 q 849 1004 859 1014 q 839 990 839 994 q 850 977 838 987 q 878 946 863 967 q 896 936 892 925 q 896 975 900 946 q 888 1014 892 1003 q 859 1014 879 1034 m 882 161 q 852 227 859 231 q 860 190 850 222 q 876 150 870 158 q 882 161 890 132 m 873 621 q 892 616 873 618 q 927 616 912 614 q 962 617 943 617 q 1000 621 1002 617 q 951 669 999 625 q 898 713 903 713 q 883 677 894 713 q 873 621 873 640 m 874 752 q 875 752 874 752 q 876 754 876 752 q 874 755 876 755 q 873 754 873 755 q 874 752 873 752 m 874 764 q 875 764 874 764 q 876 765 876 764 q 874 767 876 767 q 873 765 873 767 q 874 764 873 764 m 889 746 q 893 742 889 746 q 900 737 897 737 q 913 748 903 737 q 922 768 924 758 q 908 779 920 777 q 896 784 897 781 q 895 812 895 787 q 892 839 895 836 l 889 829 q 885 790 889 815 q 882 760 882 765 q 889 746 882 755 m 910 323 q 890 409 890 333 q 907 504 890 484 q 955 531 924 524 q 1001 520 986 537 q 1014 421 1015 503 q 994 333 1013 340 q 947 323 975 326 q 910 323 918 320 m 894 879 q 895 879 894 879 q 896 881 896 879 q 894 883 896 883 q 892 881 892 883 q 894 879 892 879 m 899 845 q 899 846 899 845 q 901 856 897 852 q 899 866 904 860 q 893 869 893 873 q 899 845 893 857 m 898 906 q 898 906 898 906 q 899 908 899 906 q 898 909 899 909 q 896 908 896 909 q 898 906 896 906 m 901 878 q 906 888 905 878 q 903 898 906 898 q 899 889 900 898 q 901 878 899 880 m 991 751 q 903 842 916 852 q 900 842 901 841 q 938 794 910 820 q 991 743 983 753 q 1001 734 998 734 q 991 751 1003 735 m 907 911 q 908 932 913 926 q 902 930 903 938 q 905 915 902 923 q 907 911 907 909 m 912 791 q 916 789 912 791 q 922 789 921 787 q 912 804 922 791 q 903 802 903 817 q 912 791 903 795 m 904 867 q 905 867 904 867 q 906 869 906 867 q 904 871 906 871 q 903 869 903 871 q 904 867 903 867 m 913 848 q 911 852 913 848 q 906 854 908 856 q 912 846 905 852 q 913 848 919 841 m 953 345 l 965 346 q 997 361 991 343 q 997 427 1004 380 q 989 492 991 473 q 951 513 985 526 q 908 454 907 498 q 909 395 909 435 q 913 348 909 356 q 937 341 917 340 l 954 345 l 953 345 m 911 729 q 911 729 911 729 q 912 731 912 729 q 911 732 912 732 q 909 731 909 732 q 911 729 909 729 m 911 871 q 911 871 911 871 q 912 873 912 871 q 911 875 912 875 q 909 873 909 875 q 911 871 909 871 m 916 875 q 928 853 916 863 q 941 845 941 844 q 935 857 941 846 q 916 875 928 868 m 930 730 q 932 725 930 730 q 992 671 934 720 q 1053 626 1050 623 q 989 707 1055 629 q 926 747 922 785 q 930 730 927 740 m 935 834 q 931 833 929 836 q 940 821 933 830 q 947 814 947 812 q 944 824 947 816 q 935 834 941 832 m 933 771 q 934 771 933 771 q 935 773 935 771 q 933 775 935 775 q 932 773 932 775 q 933 771 932 771 m 940 1086 q 941 1086 940 1086 q 942 1088 942 1086 q 940 1090 942 1090 q 939 1088 939 1090 q 940 1086 939 1086 m 966 899 q 968 999 968 922 q 958 1078 968 1077 q 947 1070 954 1078 q 945 995 940 1063 q 957 896 949 928 q 966 899 965 864 m 947 833 q 948 833 947 833 q 949 835 949 833 q 947 837 949 837 q 945 835 945 837 q 947 833 945 833 m 956 807 q 954 808 956 807 q 952 809 953 809 q 955 802 952 808 q 958 801 958 796 q 956 807 958 806 m 963 825 q 965 828 965 825 q 961 835 965 831 q 957 838 958 839 q 958 831 956 838 q 963 825 959 825 m 1021 741 q 968 805 968 829 q 995 765 968 800 q 1027 729 1022 730 q 1021 741 1028 729 m 974 836 q 976 833 974 836 q 979 830 978 830 q 981 838 980 830 q 978 849 982 845 q 972 847 975 853 q 974 836 970 841 m 979 852 q 980 852 979 852 q 981 865 981 852 q 980 879 981 879 q 977 865 979 879 q 979 852 976 852 m 980 136 q 980 136 980 136 q 981 138 981 136 q 980 140 981 140 q 978 138 978 140 q 980 136 978 136 m 983 210 q 984 210 983 210 q 985 212 985 210 q 983 214 985 214 q 981 212 981 214 q 983 210 981 210 m 1017 111 q 1026 110 1017 92 q 1046 131 1035 128 q 1089 125 1057 133 q 1123 129 1120 118 q 1119 180 1126 140 q 1111 226 1112 221 q 1095 229 1106 252 q 1090 217 1092 224 q 1043 147 1074 166 q 1012 135 1013 128 q 1023 153 1011 142 q 1054 197 1034 164 q 1080 241 1073 231 q 1067 256 1089 255 q 1008 243 1044 257 q 984 226 950 222 q 998 225 998 227 q 992 186 998 223 q 987 139 987 149 q 995 122 988 129 q 1007 125 1001 116 q 1017 120 1013 134 q 1017 111 1017 116 m 1010 785 q 1006 798 1013 785 q 994 815 1000 810 q 988 818 988 820 q 998 801 988 816 q 1010 785 1008 785 m 990 214 q 991 214 990 214 q 991 216 991 214 q 990 218 991 218 q 988 216 988 218 q 990 214 988 214 m 1032 802 q 1027 811 1034 805 q 1014 817 1019 817 q 999 831 1008 817 q 988 837 990 845 q 1005 810 988 829 q 1032 802 1021 791 m 998 136 q 995 136 998 136 q 991 140 991 136 q 998 144 991 144 q 1004 140 1004 144 q 998 136 1004 136 m 1101 616 q 1047 689 1084 648 q 1009 728 1010 729 q 1050 670 1007 726 q 1099 612 1093 614 q 1101 616 1104 610 m 1013 203 q 1034 246 997 230 q 1064 249 1060 257 q 1050 220 1068 241 q 1025 196 1032 199 q 1013 203 1019 193 m 1026 205 q 1028 206 1026 205 q 1034 212 1029 207 q 1049 229 1039 217 q 1058 243 1059 241 q 1040 239 1057 245 q 1018 228 1023 233 q 1017 215 1014 222 q 1021 205 1019 207 q 1026 205 1023 203 m 1033 792 q 1032 794 1033 792 q 1023 793 1031 795 q 1017 781 1015 791 q 1027 780 1019 770 q 1033 792 1034 789 m 1022 140 q 1023 140 1022 140 q 1024 142 1024 140 q 1022 144 1024 144 q 1021 142 1021 144 q 1022 140 1021 140 m 1124 94 q 1113 107 1129 100 q 1073 116 1096 113 q 1044 114 1049 118 q 1029 91 1039 111 q 1073 86 1025 82 q 1124 94 1120 90 m 1043 708 q 1041 714 1045 710 q 1037 715 1037 719 q 1043 708 1039 708 m 1098 561 q 1102 558 1098 561 q 1107 557 1105 555 q 1109 574 1109 559 q 1106 592 1109 590 q 1105 600 1103 595 l 1105 601 q 1097 603 1102 598 q 1068 607 1091 608 q 1043 603 1044 606 q 1050 594 1042 600 q 1075 577 1058 588 q 1098 561 1091 566 m 1086 229 q 1064 201 1086 243 q 1043 157 1041 159 q 1056 169 1045 155 q 1077 202 1067 182 q 1086 229 1086 221 m 1077 655 q 1086 646 1085 645 q 1072 670 1087 648 q 1054 692 1057 692 q 1077 655 1054 686 m 1063 623 q 1064 626 1065 625 q 1060 625 1063 627 l 1063 623 m 1072 617 q 1073 617 1072 617 q 1074 619 1074 617 q 1072 621 1074 621 q 1070 619 1070 621 q 1072 617 1070 617 m 1099 274 q 1097 288 1100 288 q 1094 272 1093 286 q 1095 258 1094 258 l 1099 274 m 1102 534 q 1103 538 1104 536 q 1099 536 1102 539 l 1102 534 m 1105 264 q 1104 259 1104 263 q 1105 255 1104 255 q 1105 264 1107 260 m 1116 607 q 1119 603 1116 607 q 1122 604 1122 599 q 1116 614 1122 610 q 1110 617 1109 618 q 1116 607 1110 616 m 1112 600 q 1128 573 1106 599 q 1129 578 1143 555 q 1112 600 1115 601 m 1115 575 q 1115 575 1115 575 q 1116 577 1116 575 q 1115 579 1116 579 q 1113 577 1113 579 q 1115 575 1113 575 m 1163 528 q 1141 589 1181 565 l 1134 592 q 1139 581 1134 591 q 1144 565 1143 572 q 1133 558 1145 551 q 1120 561 1120 565 q 1128 548 1120 557 q 1148 531 1135 538 q 1163 528 1161 524 m 1127 106 q 1128 106 1127 106 q 1129 108 1129 106 q 1127 110 1129 110 q 1126 108 1126 110 q 1127 106 1126 106 m 1134 117 q 1135 117 1134 117 q 1136 119 1136 117 q 1134 121 1136 121 q 1133 119 1133 121 q 1134 117 1133 117 m 1310 133 q 1313 133 1310 133 q 1328 160 1316 133 q 1348 197 1339 186 q 1353 212 1356 208 q 1344 232 1350 216 q 1337 249 1338 249 q 1338 218 1336 249 q 1324 184 1341 188 q 1278 220 1308 180 q 1237 260 1249 260 q 1222 220 1235 260 q 1186 172 1209 181 q 1149 203 1164 163 q 1135 228 1137 235 q 1139 188 1133 221 q 1147 151 1145 155 q 1157 148 1149 146 q 1170 144 1165 149 q 1186 147 1175 140 q 1251 144 1197 154 q 1310 133 1305 134 m 1144 225 q 1145 225 1144 225 q 1145 227 1145 225 q 1144 229 1145 229 q 1142 227 1142 229 q 1144 225 1142 225 m 1147 237 q 1148 237 1147 237 q 1149 239 1149 237 q 1147 241 1149 241 q 1145 239 1145 241 q 1147 237 1145 237 m 1157 125 q 1158 125 1157 125 q 1159 127 1159 125 q 1157 129 1159 129 q 1156 127 1156 129 q 1157 125 1156 125 m 1161 110 q 1162 110 1161 110 q 1162 112 1162 110 q 1161 113 1162 113 q 1159 112 1159 113 q 1161 110 1159 110 m 1163 121 q 1164 121 1163 121 q 1167 125 1165 121 q 1167 129 1169 129 q 1164 125 1166 129 q 1163 121 1162 121 m 1236 267 q 1237 267 1236 267 q 1238 269 1238 267 q 1236 271 1238 271 q 1234 269 1234 271 q 1236 267 1234 267 m 1238 287 q 1241 298 1241 292 q 1238 296 1240 304 q 1238 287 1236 288 m 1246 334 q 1247 339 1248 336 q 1244 339 1246 341 l 1246 334 m 1247 356 q 1250 356 1247 356 q 1250 358 1252 356 q 1245 358 1247 361 q 1247 356 1243 356 m 1328 113 q 1322 117 1326 117 q 1323 113 1318 117 q 1328 113 1329 112 m 1334 90 q 1335 90 1334 90 q 1336 92 1336 90 q 1334 94 1336 94 q 1333 92 1333 94 q 1334 90 1333 90 m 1334 106 q 1335 106 1334 106 q 1336 108 1336 106 q 1334 110 1336 110 q 1333 108 1333 110 q 1334 106 1333 106 m 1334 260 q 1335 260 1334 260 q 1336 262 1336 260 q 1334 264 1336 264 q 1333 262 1333 264 q 1334 260 1333 260 m 1337 130 q 1353 142 1337 120 q 1367 173 1368 163 q 1361 182 1367 182 q 1348 165 1356 182 q 1340 141 1339 148 q 1340 134 1341 135 q 1337 130 1337 136 m 1352 111 q 1373 119 1359 112 q 1389 133 1386 127 q 1399 212 1417 200 q 1387 210 1394 214 q 1371 206 1379 206 q 1363 205 1363 206 q 1369 198 1363 204 q 1360 131 1394 170 q 1352 111 1340 109 z "},"Ë":{"ha":2211,"x_min":286,"x_max":1849,"o":"m 517 -1 q 504 -1 505 -3 q 498 1 503 1 q 481 8 488 3 q 458 18 469 16 q 435 27 446 20 l 424 34 l 408 53 l 393 71 l 392 77 q 388 88 391 83 q 382 103 385 93 l 380 111 l 380 127 q 378 165 382 146 q 374 231 374 189 q 378 320 374 265 q 380 346 380 346 q 385 381 382 376 q 387 387 387 384 q 395 412 389 401 q 401 427 399 418 q 407 446 405 441 q 414 471 409 451 q 419 488 417 486 q 427 538 424 492 q 432 585 428 552 q 434 597 433 593 q 438 616 438 615 l 441 624 l 441 641 q 437 670 441 654 q 433 711 434 680 q 434 744 432 736 q 435 755 435 748 q 438 781 435 772 q 444 842 444 796 q 446 869 444 855 l 446 881 l 444 884 l 442 886 l 444 893 q 443 902 444 901 q 441 904 441 903 q 406 915 442 914 l 392 916 l 380 920 q 366 925 368 926 q 360 927 364 924 q 347 934 351 932 q 337 940 340 937 q 328 940 336 941 l 320 939 l 312 943 q 301 951 303 947 l 299 954 l 296 952 q 289 968 286 949 q 292 988 290 974 q 299 1039 299 1021 l 299 1048 l 301 1050 q 307 1063 304 1052 q 315 1078 310 1078 q 318 1074 317 1078 q 321 1069 319 1069 q 323 1069 322 1070 q 347 1061 328 1063 q 370 1061 362 1059 q 393 1061 378 1063 l 408 1060 l 416 1055 q 430 1045 425 1050 l 436 1039 l 451 1037 q 471 1031 467 1034 q 492 1024 475 1028 l 502 1022 l 506 1023 q 537 1019 519 1027 l 544 1017 l 558 1017 q 587 1013 587 1017 q 589 1010 587 1010 q 598 1004 591 1010 l 606 997 l 616 996 q 635 991 630 995 q 647 989 637 991 q 672 984 669 985 q 691 974 687 979 l 695 970 l 694 966 l 694 962 l 696 960 l 699 958 l 710 960 l 721 960 l 728 958 q 743 951 738 952 q 751 945 749 951 q 767 939 755 938 q 781 931 781 940 l 781 928 l 784 928 q 789 928 787 927 q 800 916 800 932 l 800 909 l 804 907 q 810 901 807 904 l 813 899 l 813 890 l 813 881 l 809 873 q 792 858 802 858 l 790 858 l 791 834 l 791 812 l 794 806 q 796 779 796 800 q 793 750 796 755 l 790 747 l 791 741 l 792 735 l 798 735 q 805 738 800 734 q 817 739 810 743 q 834 736 823 736 q 850 730 848 736 q 855 726 850 730 q 862 722 858 724 l 867 720 l 875 722 q 885 725 882 724 q 895 729 888 727 l 901 730 l 905 736 l 909 741 l 918 741 q 931 738 927 741 q 945 743 937 733 l 950 750 l 955 749 l 962 748 l 962 750 l 964 753 l 974 752 q 989 752 985 751 l 994 753 l 994 758 q 998 774 994 763 l 1001 785 l 1000 801 l 999 817 l 997 819 q 1004 836 994 824 q 1012 846 1010 842 l 1013 850 l 1009 853 l 1006 856 l 1007 859 q 1008 868 1008 862 l 1009 873 l 1014 878 q 1010 904 1026 890 q 1003 923 999 914 q 1006 935 1006 929 q 1008 943 1006 942 q 1009 947 1009 945 q 1010 952 1009 951 q 1013 956 1014 956 q 1015 962 1012 960 l 1017 964 l 1020 960 l 1023 958 l 1026 958 q 1034 956 1028 960 q 1055 954 1044 949 q 1069 949 1066 958 l 1071 945 l 1078 949 q 1090 954 1086 954 l 1094 954 l 1095 949 q 1098 951 1097 947 q 1109 952 1099 954 l 1115 951 l 1126 938 q 1142 924 1140 923 q 1156 918 1144 925 q 1164 914 1164 913 l 1166 913 l 1168 911 l 1171 913 l 1175 915 l 1184 914 l 1192 913 l 1198 916 l 1202 918 l 1227 917 q 1253 920 1253 917 q 1256 924 1253 921 q 1263 928 1260 928 l 1267 928 l 1272 934 l 1276 940 l 1283 938 q 1293 941 1289 936 q 1295 952 1295 945 q 1297 963 1295 960 q 1299 972 1299 966 l 1299 978 l 1305 984 q 1312 1019 1320 999 l 1308 1025 l 1312 1027 q 1314 1030 1314 1030 q 1322 1033 1316 1030 l 1327 1036 l 1332 1035 l 1337 1034 l 1345 1039 l 1353 1044 l 1367 1045 q 1385 1049 1377 1046 q 1399 1050 1391 1050 l 1407 1050 l 1413 1047 l 1419 1043 l 1424 1046 q 1434 1050 1430 1050 l 1438 1050 l 1444 1043 l 1451 1036 l 1455 1036 q 1465 1037 1459 1036 q 1472 1036 1470 1038 q 1475 1035 1473 1036 q 1485 1031 1480 1034 q 1496 1027 1491 1027 l 1502 1027 l 1506 1024 l 1509 1021 l 1527 1021 l 1544 1021 l 1546 1019 q 1550 1017 1548 1019 q 1559 1013 1556 1015 l 1566 1008 l 1571 1011 q 1585 1015 1577 1013 l 1592 1015 l 1594 1013 q 1598 1008 1596 1011 l 1598 1002 l 1602 1002 q 1608 1004 1604 1002 q 1639 999 1619 1010 l 1643 997 l 1649 1001 q 1664 1001 1659 1006 q 1678 1002 1670 996 q 1686 1004 1684 1008 q 1693 1002 1687 1002 q 1699 1004 1697 1002 q 1707 1006 1699 1008 q 1718 999 1713 1004 q 1726 995 1722 996 l 1730 994 l 1734 999 l 1738 1002 l 1742 999 q 1747 997 1744 996 q 1758 994 1749 998 q 1788 991 1779 986 q 1801 995 1792 994 l 1811 997 l 1813 1000 q 1815 1002 1815 1004 q 1823 1008 1815 1002 q 1830 1013 1828 1013 q 1834 1017 1831 1013 q 1848 1021 1846 1027 q 1848 1005 1849 1017 q 1843 985 1847 993 q 1842 927 1834 965 q 1845 910 1844 917 l 1845 903 l 1842 893 l 1838 884 l 1836 867 q 1835 840 1834 842 q 1836 824 1836 838 q 1843 718 1836 760 q 1844 705 1844 713 l 1844 696 l 1841 694 l 1838 691 l 1838 686 q 1843 670 1838 681 l 1847 661 l 1846 654 q 1844 642 1844 647 q 1841 623 1843 629 q 1840 606 1840 620 l 1840 591 l 1836 589 l 1834 585 l 1834 577 q 1839 554 1836 563 l 1840 547 l 1838 541 q 1836 522 1836 534 l 1836 509 l 1839 507 l 1842 504 l 1842 499 q 1839 486 1842 495 l 1836 477 l 1836 473 q 1838 447 1839 470 l 1836 425 l 1839 414 q 1843 370 1843 389 q 1840 342 1843 355 l 1836 332 l 1831 327 l 1827 322 l 1815 320 q 1765 314 1776 313 q 1729 311 1751 315 q 1691 304 1703 304 q 1658 313 1678 304 q 1625 321 1640 321 q 1612 323 1616 321 q 1607 325 1609 324 q 1573 339 1586 331 l 1565 342 l 1554 345 q 1537 349 1550 345 q 1518 352 1525 352 l 1509 353 l 1504 355 q 1488 381 1485 370 l 1489 384 l 1484 386 q 1449 401 1452 401 q 1445 404 1445 403 q 1424 414 1443 409 q 1376 443 1392 425 q 1364 453 1374 446 q 1358 458 1359 456 q 1339 471 1355 466 q 1328 475 1328 473 q 1326 477 1328 475 q 1318 479 1318 479 q 1312 482 1314 482 q 1303 488 1303 484 q 1300 490 1303 488 q 1287 507 1291 491 l 1286 514 l 1280 517 q 1270 518 1272 522 q 1263 511 1268 516 l 1257 506 l 1256 500 l 1255 493 l 1248 486 q 1230 475 1238 477 q 1187 432 1204 469 q 1173 411 1177 412 q 1171 409 1173 411 q 1159 404 1169 408 q 1115 370 1115 386 q 1114 366 1115 366 q 1100 353 1113 366 l 1088 339 l 1082 339 l 1076 339 l 1070 335 q 1063 327 1065 331 q 1058 321 1061 323 q 1055 316 1055 319 q 1050 309 1055 313 q 1043 303 1044 304 q 1030 292 1038 296 q 1010 270 1018 285 q 991 248 1006 260 q 977 239 980 239 q 966 232 973 241 q 960 227 962 227 q 958 224 958 227 q 952 215 958 222 q 949 207 949 210 q 945 199 949 206 q 941 193 941 195 q 940 189 943 191 q 935 180 937 187 q 927 164 935 171 l 922 159 l 911 160 l 900 161 l 890 155 q 875 147 878 147 q 867 143 871 146 q 864 141 865 141 q 853 136 861 140 q 830 126 840 130 q 789 108 813 121 q 768 97 777 101 q 751 88 761 93 q 726 77 742 82 q 717 75 721 77 q 691 68 715 73 q 661 60 669 64 q 651 57 653 58 q 623 43 637 51 q 619 41 620 41 q 610 34 618 41 q 601 29 603 29 q 596 26 601 29 q 556 14 579 18 q 531 5 540 12 q 517 -1 526 1 z "},"Ì":{"ha":686,"x_min":41,"x_max":631,"o":"m 588 1411 l 602 1411 q 631 1382 631 1407 q 214 1223 519 1296 l 199 1253 l 199 1267 q 314 1296 237 1267 l 314 1281 q 588 1411 510 1355 m 84 1022 l 113 1022 q 98 633 98 756 l 69 619 l 55 619 l 55 791 q 84 936 58 936 q 69 979 69 964 q 84 1022 84 1007 m 98 619 l 98 475 q 84 417 98 442 q 142 187 103 240 q 113 158 142 158 q 55 389 55 220 l 69 389 l 55 417 l 55 576 l 41 604 q 98 619 73 604 z "},"Ó":{"ha":916,"x_min":41,"x_max":861,"o":"m 761 1281 l 761 1238 q 444 1109 509 1109 l 444 1137 q 761 1281 736 1281 m 530 1065 q 861 777 861 926 l 861 749 q 847 734 861 734 l 861 705 l 861 590 q 387 72 718 72 l 357 72 q 41 403 41 174 l 55 403 l 41 432 l 41 547 q 55 562 41 562 l 41 590 l 41 662 q 300 1008 41 926 l 429 1022 q 473 1008 457 1008 l 473 1022 l 458 1051 l 530 1065 m 84 720 l 84 446 q 257 158 84 222 q 401 115 330 115 l 487 115 l 574 172 q 588 158 574 158 l 588 172 q 574 187 574 172 q 775 490 724 267 q 819 648 819 490 l 819 749 q 660 936 819 895 q 588 994 660 956 q 170 892 273 977 q 84 720 84 785 z "},"Ú":{"ha":772,"x_min":41,"x_max":718,"o":"m 646 1281 l 660 1281 l 660 1253 q 559 1152 660 1223 q 401 1022 454 1022 l 401 1051 q 501 1137 436 1114 q 516 1123 501 1123 l 516 1137 q 501 1152 501 1137 q 646 1281 646 1266 m 127 1109 l 170 1109 q 127 892 127 956 l 98 907 q 113 892 98 892 l 98 821 l 98 633 q 84 619 98 619 l 98 590 l 98 547 q 84 490 98 515 q 98 432 98 464 q 84 389 98 416 q 357 144 84 164 q 372 130 372 144 q 616 345 616 162 q 674 504 649 345 l 660 532 l 674 590 l 660 677 q 674 691 660 691 l 660 763 l 660 864 q 674 878 660 878 l 660 907 q 674 950 674 935 q 718 907 695 950 q 703 864 703 879 q 718 849 718 864 l 689 835 q 718 720 718 761 l 703 720 q 718 705 703 705 q 458 100 718 161 l 387 100 q 98 230 159 100 q 41 331 50 331 l 55 403 l 55 417 q 41 460 55 460 l 55 532 l 55 648 q 127 1109 55 854 z "},"Ý":{"ha":829,"x_min":41,"x_max":775,"o":"m 746 1454 q 775 1426 775 1450 q 357 1223 766 1426 l 343 1253 q 746 1454 666 1454 m 41 1137 l 55 1137 q 214 791 80 1127 l 242 777 q 473 994 361 777 q 574 1109 484 994 l 602 1094 q 559 1036 581 1036 q 545 1051 559 1051 l 559 1022 q 357 777 382 777 q 286 359 311 777 l 286 201 l 271 130 q 242 158 242 130 l 242 245 q 257 259 242 259 q 242 302 242 287 q 286 720 242 574 q 142 864 142 739 l 41 1094 l 41 1137 z "},"á":{"ha":758,"x_min":41,"x_max":703,"o":"m 689 1109 l 703 1109 l 703 1080 l 473 979 q 343 936 377 936 l 329 964 q 689 1109 647 1109 m 343 720 q 574 446 574 578 l 559 446 l 574 417 l 574 403 q 559 389 574 389 l 574 359 l 574 317 q 357 130 574 166 q 214 273 243 177 q 473 446 214 363 l 487 446 l 487 432 l 271 302 l 271 288 q 372 172 271 201 q 530 345 505 172 l 530 475 q 314 677 401 677 l 314 691 q 69 590 107 633 l 41 590 l 41 633 q 156 691 75 633 q 343 720 271 720 z "},"é":{"ha":844,"x_min":41,"x_max":789,"o":"m 746 1036 l 789 1036 q 574 964 789 984 l 574 979 q 415 936 465 936 l 401 964 q 574 1008 534 1008 q 631 994 599 994 q 746 1036 640 1036 m 329 734 q 487 590 487 690 q 127 417 487 446 l 127 446 l 98 446 l 113 417 l 84 417 l 84 345 q 69 331 84 331 q 142 216 77 248 q 329 172 185 172 l 487 172 l 574 245 l 574 201 q 444 130 548 130 l 314 130 q 41 273 102 130 l 41 460 q 69 490 45 490 l 55 518 l 55 532 q 329 734 129 734 m 98 518 l 98 460 l 113 460 q 401 532 401 484 q 444 576 421 532 q 300 691 444 691 q 98 518 180 691 z "},"í":{"ha":599,"x_min":41,"x_max":545,"o":"m 545 1109 l 545 1065 q 142 936 327 1008 l 127 964 l 127 979 q 545 1109 515 1109 m 84 691 l 127 691 q 113 633 127 659 l 127 460 q 84 230 127 402 l 41 230 l 41 245 q 98 504 84 395 l 84 532 l 84 691 z "},"ó":{"ha":1017,"x_min":41,"x_max":962,"o":"m 948 1152 l 962 1152 l 962 1123 q 516 964 962 1046 l 516 979 q 473 964 488 964 q 429 979 445 979 l 429 1008 q 890 1109 658 1022 q 948 1152 890 1123 m 674 749 q 789 677 783 710 q 775 662 789 662 q 804 547 804 574 q 616 288 725 288 l 616 273 l 588 288 q 429 216 588 248 q 314 245 314 230 l 286 230 l 257 230 q 41 389 41 230 l 41 446 q 113 604 41 551 q 343 734 161 734 q 674 749 537 749 m 401 562 q 372 590 372 562 l 372 619 l 387 691 l 314 691 q 156 604 230 691 l 127 619 l 142 590 q 84 389 84 524 q 127 273 84 351 l 257 273 q 271 259 271 273 l 300 273 l 530 273 q 761 590 761 411 l 746 590 l 761 619 q 616 705 761 694 l 530 705 q 401 562 410 705 z "},"ú":{"ha":714,"x_min":41,"x_max":660,"o":"m 660 1094 l 660 1065 q 559 979 660 1040 q 228 806 555 930 l 199 806 l 199 821 l 387 936 l 429 936 l 458 922 l 458 936 q 444 950 444 936 q 660 1094 470 950 m 98 763 l 113 763 q 98 475 98 549 q 199 201 123 201 l 257 187 q 429 374 375 187 l 444 374 q 458 359 444 359 q 257 144 422 144 l 242 172 l 214 158 l 199 158 q 184 172 184 158 l 156 158 q 41 460 109 158 q 69 562 55 562 l 55 590 l 55 677 q 98 763 64 763 m 501 734 l 530 734 q 545 705 530 705 q 458 359 502 359 q 444 403 458 375 q 487 446 444 446 l 473 475 q 501 604 481 604 q 487 619 501 619 l 501 691 l 501 734 z "},"ý":{"ha":671,"x_min":41,"x_max":616,"o":"m 616 1094 q 242 864 482 935 l 228 864 q 372 964 228 895 l 401 950 q 487 1022 401 994 q 616 1094 487 1055 m 41 791 l 84 791 l 98 720 l 84 720 l 98 691 q 127 345 98 544 q 113 331 113 345 l 184 216 q 329 562 239 216 q 401 705 368 687 l 415 705 l 415 691 q 257 158 343 380 q 69 490 69 158 q 55 633 55 490 q 69 648 55 648 l 41 705 l 55 705 l 41 734 q 55 749 41 749 l 41 777 l 41 791 m 228 144 l 242 144 q 127 -159 242 -45 l 113 -159 l 113 -130 q 184 43 164 -89 q 228 144 204 144 z "},"Š":{"ha":800,"x_min":41,"x_max":746,"o":"m 660 1411 l 674 1382 q 545 1238 673 1352 l 545 1223 l 616 1152 l 616 1137 l 559 1137 q 372 1195 559 1195 q 300 994 300 1137 q 559 734 300 897 q 746 446 746 594 l 746 302 l 602 130 q 501 72 602 111 l 473 72 q 242 172 302 72 q 142 259 142 216 l 113 245 q 41 345 41 296 q 113 460 41 420 q 142 432 142 456 q 84 359 84 402 q 271 201 85 304 q 458 115 330 115 q 718 432 718 193 q 516 705 673 614 q 314 849 515 720 q 257 1036 271 927 q 343 1223 281 1194 q 242 1339 275 1339 l 242 1354 q 271 1382 247 1382 q 458 1238 359 1260 q 660 1411 484 1238 z "},"š":{"ha":541,"x_min":41,"x_max":487,"o":"m 98 1109 l 113 1109 q 343 964 266 990 q 458 1080 392 970 l 473 1008 q 401 936 473 988 l 314 936 q 98 1094 223 936 l 98 1109 m 184 821 l 184 806 l 214 821 q 415 705 312 808 l 387 691 q 170 777 252 777 q 84 720 98 720 l 84 749 q 184 821 104 821 m 98 720 l 113 720 q 343 604 187 631 q 487 317 487 500 l 487 273 q 271 201 487 220 l 257 201 q 41 374 41 238 l 41 475 q 69 504 45 504 l 84 504 l 84 490 l 69 403 q 271 245 118 245 l 300 245 q 458 317 417 245 q 257 576 401 576 q 98 677 112 627 l 98 720 z "},"Ž":{"ha":873,"x_min":41,"x_max":819,"o":"m 300 1483 l 314 1483 q 387 1354 330 1483 l 415 1339 l 458 1339 l 559 1426 l 602 1426 q 487 1296 511 1297 l 429 1296 q 314 1411 346 1296 l 300 1411 l 300 1483 m 84 1195 l 156 1181 l 501 1181 q 559 1195 534 1181 q 746 1065 746 1195 q 602 864 729 1062 q 401 619 563 864 q 257 389 365 483 q 98 130 163 198 l 228 115 q 516 144 458 144 l 516 130 l 819 187 l 819 158 q 631 100 819 130 l 631 115 q 530 86 574 86 l 501 100 l 473 86 q 458 100 458 86 q 300 72 319 72 q 286 86 286 72 l 214 72 l 142 72 q 55 115 66 72 l 55 144 l 300 504 l 415 720 q 545 864 415 744 l 703 1080 l 703 1094 q 660 1137 703 1115 l 530 1137 l 444 1152 q 372 1137 420 1137 l 357 1137 q 314 1152 314 1137 l 242 1137 l 113 1137 l 41 1152 q 84 1195 41 1163 z "},"ž":{"ha":786,"x_min":41,"x_max":732,"o":"m 616 1080 l 660 1080 q 516 892 613 892 q 372 936 372 910 l 343 922 q 170 1051 193 1004 l 184 1051 q 329 979 235 1051 l 516 936 q 616 1080 567 936 m 387 749 q 501 677 501 728 q 228 331 501 591 q 199 273 228 309 l 199 245 q 286 216 286 234 l 314 230 q 357 216 342 216 q 372 230 372 216 l 444 216 q 732 273 669 273 l 732 259 q 631 216 732 230 l 631 230 q 458 172 521 172 l 444 172 q 429 187 429 172 q 387 172 401 172 l 357 187 l 329 172 q 156 230 289 172 l 156 259 q 300 460 156 342 q 458 691 458 625 l 401 705 q 170 648 362 677 l 84 662 l 41 662 l 41 677 q 69 705 45 705 l 84 705 q 98 691 98 705 l 127 705 l 170 705 q 184 691 184 705 q 387 749 296 709 z "},"ˆ":{"ha":490,"x_min":41,"x_max":435,"o":"m 41 805 l 198 1046 l 278 1046 l 435 805 l 396 805 l 238 951 l 80 805 l 41 805 z "},"ˇ":{"ha":490,"x_min":41,"x_max":435,"o":"m 41 1046 l 80 1046 l 238 901 l 396 1046 l 435 1046 l 278 805 l 198 805 l 41 1046 z "},"˘":{"ha":491,"x_min":41,"x_max":437,"o":"m 41 1017 l 75 1017 q 126 945 87 968 q 239 922 165 922 q 352 944 313 922 q 402 1017 391 967 l 437 1017 q 373 881 423 927 q 239 834 323 834 q 106 881 157 834 q 41 1017 55 928 z "},"˙":{"ha":241,"x_min":41,"x_max":186,"o":"m 50 947 l 97 996 q 106 1002 101 1000 q 115 1004 111 1004 q 124 1002 119 1004 q 132 996 128 1000 l 180 944 q 185 937 184 941 q 186 928 186 933 q 184 918 186 922 q 179 909 183 913 l 131 858 q 120 849 123 850 q 115 847 117 847 q 104 849 109 847 q 97 854 100 850 l 46 913 q 42 920 43 916 q 41 929 41 924 q 43 938 41 933 q 50 947 45 942 z "},"˚":{"ha":336,"x_min":41,"x_max":281,"o":"m 92 926 q 112 878 92 897 q 160 858 132 858 q 208 878 189 858 q 228 926 228 897 q 208 973 228 953 q 160 993 188 993 q 112 973 132 993 q 92 926 92 953 m 41 926 q 75 1011 41 977 q 160 1046 110 1046 q 247 1011 212 1046 q 281 926 281 976 q 247 840 281 875 q 160 805 212 805 q 75 840 110 805 q 41 926 41 875 z "},"˛":{"ha":345,"x_min":41,"x_max":290,"o":"m 224 0 q 150 -81 176 -42 q 123 -157 123 -120 q 141 -208 123 -189 q 191 -227 159 -227 q 238 -217 218 -227 q 271 -184 258 -206 l 290 -195 q 229 -260 266 -237 q 148 -283 192 -283 q 71 -259 100 -283 q 41 -198 41 -235 q 82 -92 41 -146 q 191 0 123 -37 l 224 0 z "},"˜":{"ha":484,"x_min":41,"x_max":430,"o":"m 430 1010 q 384 906 416 941 q 298 871 351 871 l 295 871 q 218 887 261 871 q 141 903 174 903 q 100 889 115 903 q 77 841 85 876 l 41 841 q 87 948 54 913 q 174 984 120 984 q 251 968 205 983 q 327 952 294 952 l 330 952 q 369 966 354 952 q 393 1010 384 979 l 430 1010 z "},"˝":{"ha":494,"x_min":41,"x_max":440,"o":"m 41 805 l 138 990 q 169 1033 155 1020 q 201 1046 184 1046 q 233 1032 220 1046 q 247 1000 247 1019 q 240 977 247 989 q 219 949 233 964 l 80 805 l 41 805 m 234 805 l 332 990 q 362 1033 348 1020 q 394 1046 377 1046 q 427 1032 413 1046 q 440 1000 440 1019 q 433 977 440 989 q 412 949 426 964 l 273 805 l 234 805 z "},"…":{"ha":1225,"x_min":41,"x_max":1171,"o":"m 146 368 q 172 353 159 353 q 186 357 178 353 q 183 366 183 361 q 191 377 183 372 l 220 327 l 208 320 l 256 265 l 269 272 l 292 319 l 211 372 l 236 387 q 247 389 241 389 q 331 308 285 389 l 338 296 q 197 165 204 168 q 140 148 169 164 l 128 141 l 174 118 q 180 101 180 109 q 164 79 180 87 l 152 71 q 41 91 142 87 l 58 117 l 71 125 l 103 127 q 65 245 65 193 q 146 368 65 321 m 142 232 l 212 256 l 190 293 l 153 271 q 138 246 138 259 q 142 232 138 239 m 563 368 q 588 353 575 353 q 602 357 595 353 q 600 366 600 361 q 608 377 600 372 l 637 327 l 624 320 l 673 265 l 685 272 l 708 319 l 627 372 l 652 387 q 663 389 658 389 q 747 308 701 389 l 755 296 q 614 165 621 168 q 557 148 585 164 l 545 141 l 591 118 q 597 101 597 109 q 581 79 597 87 l 568 71 q 457 91 559 87 l 475 117 l 488 125 l 519 127 q 481 245 481 193 q 563 368 481 321 m 558 232 l 628 256 l 606 293 l 569 271 q 554 246 554 259 q 558 232 554 239 m 980 368 q 1005 353 992 353 q 1019 357 1012 353 q 1017 366 1017 362 q 1024 377 1017 372 l 1053 327 l 1040 320 l 1089 265 l 1101 272 l 1124 319 l 1044 372 l 1069 387 q 1080 389 1074 389 q 1164 308 1118 389 l 1171 296 q 1031 165 1037 168 q 973 148 1002 164 l 961 141 l 1008 118 q 1013 101 1013 109 q 997 79 1013 87 l 985 71 q 873 91 975 87 l 891 117 l 904 125 l 936 127 q 898 244 898 193 q 980 368 898 321 m 975 232 l 1044 256 l 1023 293 l 985 271 q 971 246 971 260 q 975 232 971 239 z "}}}
